<svg width="1728" height="1117" viewBox="0 0 1728 1117" fill="none" xmlns="http://www.w3.org/2000/svg">
<path d="M1033.9 922.75C1022.98 918.509 1008.21 923.448 997.02 935.076C994.198 938.016 992.34 940.438 990.091 944.067C986.559 949.802 984.449 955.727 983.849 961.723C983.498 965.22 983.703 968.168 984.539 971.293C985.644 975.426 987.469 978.458 990.441 981.128C991.832 982.375 994.887 984.104 996.728 984.69C1000.39 985.847 1004.05 986.085 1008.27 985.457C1016.69 984.18 1025.33 979.344 1032.57 971.833C1035.8 968.481 1038.13 965.306 1040.51 960.984C1043.77 955.028 1045.38 949.82 1045.71 944.04C1045.9 940.758 1045.69 938.643 1044.89 935.639C1043.82 931.614 1042.05 928.612 1039.21 926.035C1038.26 925.166 1035.12 923.212 1033.9 922.75Z" fill="white"/>
<path d="M977.637 894.612C975.245 893.623 973.533 893.197 971.544 893.072C964.708 892.672 957.422 896 951.195 902.362C948.308 905.298 946.309 907.963 944.07 911.87C940.187 918.596 937.993 925.581 937.443 932.936C937.113 937.4 937.425 941.313 938.404 945.016C939.822 950.318 942.319 954.368 945.943 957.177C950.393 960.649 956.661 961.472 962.761 959.402C968.551 957.425 974.004 953.26 978.893 947.064C980.511 944.997 984.319 938.432 985.279 936.003C989.175 926.216 990.143 916.989 988.146 909.033C986.545 902.721 983.706 898.406 979.298 895.571C978.61 895.14 977.869 894.712 977.637 894.612Z" fill="white"/>
<path d="M914.205 911.864C911.25 910.67 908.97 910.342 906.146 910.69C900.72 911.358 895.249 914.934 890.587 920.886C889.198 922.642 886.288 927.594 885.355 929.8C883.908 933.192 882.694 936.976 881.985 940.385C879.29 953.372 881.676 966.258 888.067 973.357C889.516 974.978 890.405 975.679 892.436 976.851C893.951 977.709 894.542 977.982 895.615 978.277C897.064 978.688 899.441 978.935 900.763 978.829C905.577 978.454 910.186 976.017 914.566 971.556C916.876 969.207 917.692 968.059 920.158 963.788C922.242 960.15 922.46 959.713 923.278 957.559C924.796 953.543 925.732 949.975 926.332 945.957C928.272 932.892 925.094 920.64 918.17 914.494C917.286 913.694 914.979 912.175 914.205 911.864Z" fill="white"/>
<path d="M1039.21 994.932C1029.14 991.316 1014.62 996.35 1003.87 1007.18C998.674 1012.41 994.772 1018.78 993.059 1024.82C990.975 1032.17 992.053 1038.83 996 1043.17C997.09 1044.38 997.941 1045.06 999.436 1045.92C1001.11 1046.89 1002.43 1047.4 1004.38 1047.84C1008.22 1048.7 1012.47 1048.47 1017.13 1047.19C1019.92 1046.43 1021.65 1045.76 1024.32 1044.44C1030.92 1041.19 1036.82 1036.31 1041.6 1030.15C1043.03 1028.32 1046.05 1023.17 1046.8 1021.31C1048.68 1016.64 1049.44 1012.82 1049.22 1008.98C1048.95 1004.22 1046.97 1000.08 1043.69 997.434C1042.67 996.619 1040.47 995.384 1039.21 994.932Z" fill="white"/>
<path d="M952.584 991.392C946.539 988.413 938.327 985.854 934.039 985.612C931.088 985.443 928.991 985.801 922.419 987.598C919.751 988.326 916.752 989.066 915.763 989.245C912.937 989.745 907.851 990.031 899 990.171C884.717 990.398 879.9 990.925 877.171 992.555C873.956 994.466 871.049 997.613 868.628 1001.81C866.681 1005.15 865.617 1007.88 864.931 1011.25C864.258 1014.51 864.251 1016.91 864.909 1020.46C867.092 1032.22 875.301 1043.37 890.328 1054.98C895.638 1059.09 901.009 1062.73 915.035 1071.77C920.474 1075.27 931.832 1081.87 935.306 1083.56C949.27 1090.34 959.684 1092.77 969.659 1091.54C972.136 1091.23 976.095 1090.24 977.914 1089.45C980.987 1088.14 983.155 1086.07 985.237 1082.46C986.484 1080.3 987.288 1078.38 987.992 1075.92C989.724 1069.8 989.758 1065.52 988.127 1059.7C987.356 1056.94 986.676 1055.16 984.151 1049.27C981.528 1043.14 980.671 1040.82 979.872 1037.63C979.174 1034.86 978.881 1032.71 978.316 1026.43C977.846 1021.08 977.405 1018.22 976.666 1015.58C975.887 1012.82 975.071 1011.02 973.639 1008.9C969.06 1002.11 961.339 995.696 952.584 991.392Z" fill="white"/>
<path d="M673.858 383.009C661.842 392.66 657.753 412.742 663.639 433.143C665.133 438.291 666.67 442.002 669.326 446.951C673.537 454.749 678.9 461.051 685.336 465.679C689.091 468.379 692.585 470.085 696.695 471.189C702.131 472.649 706.787 472.563 711.784 470.934C714.12 470.168 718.1 467.826 719.979 466.113C723.703 462.706 726.382 458.692 728.448 453.462C732.53 443.03 732.699 430.012 728.91 416.813C727.215 410.927 725.128 406.188 721.766 400.637C717.13 392.995 712.256 387.734 705.882 383.564C702.269 381.186 699.721 380.033 695.77 378.971C690.483 377.538 685.895 377.585 681.093 379.124C679.48 379.629 675.184 381.929 673.858 383.009Z" fill="white"/>
<path d="M604.784 428.608C602.084 430.683 600.472 432.354 599.021 434.538C594.068 442.063 593.068 452.555 596.219 463.835C597.665 469.056 599.387 473.087 602.367 478.208C607.476 487.057 613.991 494.152 622.009 499.617C626.878 502.929 631.543 505.148 636.405 506.468C643.379 508.341 649.638 508.16 655.221 505.878C662.105 503.093 667.166 496.492 668.82 488.18C670.377 480.282 669.218 471.329 665.374 461.682C664.084 458.479 659.109 449.822 656.972 447.13C648.384 436.252 638.507 429.079 628.128 426.122C619.884 423.794 613.099 424.189 606.968 427.347C606.025 427.847 605.05 428.41 604.784 428.608Z" fill="white"/>
<path d="M582.712 512.233C579.408 514.814 577.534 517.196 576.073 520.642C573.265 527.265 573.741 535.851 577.456 545.079C578.543 547.816 582.271 554.389 584.171 556.903C587.084 560.784 590.596 564.656 594.015 567.706C607.039 579.321 623.291 585.078 635.585 582.467C638.384 581.882 639.768 581.33 642.44 579.787C644.413 578.626 645.113 578.132 646.156 577.104C647.576 575.723 649.422 573.177 650.17 571.601C652.911 565.869 653.166 559.015 650.964 551.089C649.808 546.912 649.036 545.226 645.792 539.607C643.017 534.839 642.663 534.304 640.747 531.955C637.169 527.583 633.719 524.169 629.536 520.842C615.926 510.037 599.876 505.599 588.317 509.446C586.825 509.926 583.576 511.555 582.712 512.233Z" fill="white"/>
<path d="M759.596 424.443C748.851 433.54 745.035 453.396 750.302 472.764C752.842 482.131 757.538 490.77 763.288 496.692C770.298 503.905 778.592 507.057 786.136 505.415C788.231 504.969 789.564 504.446 791.53 503.31C793.732 502.039 795.182 500.865 796.962 498.941C800.47 495.121 803.011 490.132 804.613 483.981C805.582 480.304 805.958 477.889 806.208 473.976C806.841 464.324 805.162 454.392 801.293 444.894C800.147 442.057 796.273 435.231 794.643 433.144C790.563 427.94 786.707 424.559 782.186 422.279C776.589 419.454 770.561 418.987 765.395 420.982C763.79 421.617 760.936 423.31 759.596 424.443Z" fill="white"/>
<path d="M698.575 520.819C691.204 525.748 682.886 533.422 679.789 538.148C677.656 541.399 676.684 544.023 674.409 552.694C673.482 556.212 672.353 560.117 671.907 561.362C670.617 564.91 667.597 570.893 661.934 581.071C652.797 597.495 650.229 603.329 650.29 607.511C650.353 612.432 652.026 617.813 655.212 623.331C657.74 627.749 660.148 630.755 663.538 633.755C666.81 636.666 669.54 638.253 674.019 639.839C688.857 645.089 706.961 643.071 730.073 633.585C738.244 630.236 745.932 626.515 765.455 616.478C773.019 612.582 788.02 603.988 792.221 601.136C809.137 589.688 818.759 579.422 823.918 567.246C825.196 564.221 826.675 559.06 826.971 556.467C827.498 552.103 826.562 548.269 823.823 543.525C822.181 540.682 820.519 538.501 818.181 536.082C812.34 530.079 807.49 527.227 799.788 525.258C796.131 524.318 793.664 523.926 785.291 522.928C776.576 521.881 773.369 521.333 769.21 520.145C765.592 519.116 762.953 518.038 755.429 514.553C749.023 511.567 745.47 510.187 741.972 509.29C738.325 508.367 735.736 508.113 732.376 508.348C721.631 509.101 709.239 513.676 698.575 520.819Z" fill="white"/>
<path d="M690.323 788.574C684.745 793.055 682.846 802.378 685.579 811.849C686.272 814.24 686.986 815.962 688.219 818.26C690.174 821.88 692.664 824.806 695.652 826.955C697.395 828.208 699.017 829 700.925 829.513C703.449 830.19 705.61 830.15 707.93 829.394C709.015 829.039 710.862 827.951 711.735 827.156C713.464 825.575 714.707 823.711 715.667 821.283C717.562 816.44 717.64 810.396 715.881 804.268C715.094 801.536 714.125 799.335 712.565 796.758C710.412 793.211 708.149 790.768 705.19 788.832C703.513 787.728 702.33 787.193 700.496 786.7C698.041 786.034 695.911 786.056 693.682 786.771C692.933 787.005 690.939 788.073 690.323 788.574Z" fill="white"/>
<path d="M658.255 809.744C657.001 810.708 656.253 811.483 655.579 812.497C653.28 815.991 652.815 820.862 654.279 826.098C654.95 828.522 655.749 830.394 657.133 832.771C659.504 836.879 662.529 840.173 666.251 842.71C668.512 844.248 670.678 845.278 672.935 845.891C676.173 846.761 679.078 846.676 681.671 845.617C684.866 844.324 687.216 841.26 687.984 837.401C688.707 833.734 688.169 829.577 686.384 825.099C685.785 823.612 683.475 819.593 682.483 818.343C678.496 813.293 673.911 809.963 669.093 808.59C665.265 807.509 662.115 807.692 659.269 809.159C658.831 809.391 658.378 809.652 658.255 809.744Z" fill="white"/>
<path d="M648.008 848.568C646.474 849.766 645.604 850.872 644.926 852.471C643.622 855.546 643.843 859.532 645.567 863.816C646.072 865.087 647.803 868.139 648.685 869.306C650.037 871.108 651.668 872.905 653.255 874.321C659.302 879.713 666.847 882.386 672.554 881.174C673.854 880.903 674.496 880.646 675.737 879.93C676.653 879.391 676.978 879.161 677.462 878.684C678.121 878.043 678.978 876.861 679.326 876.129C680.598 873.468 680.716 870.286 679.694 866.607C679.157 864.667 678.799 863.885 677.293 861.276C676.005 859.063 675.84 858.814 674.951 857.724C673.29 855.694 671.688 854.109 669.746 852.564C663.428 847.548 655.976 845.488 650.61 847.273C649.917 847.497 648.409 848.253 648.008 848.568Z" fill="white"/>
<path d="M730.127 807.81C725.139 812.034 723.367 821.252 725.812 830.244C726.992 834.593 729.172 838.603 731.841 841.353C735.096 844.701 738.947 846.164 742.449 845.402C743.421 845.195 744.04 844.952 744.953 844.425C745.975 843.835 746.649 843.29 747.475 842.397C749.103 840.623 750.283 838.307 751.027 835.451C751.477 833.744 751.651 832.623 751.767 830.806C752.061 826.325 751.282 821.714 749.485 817.305C748.953 815.988 747.155 812.819 746.398 811.85C744.504 809.434 742.714 807.864 740.615 806.806C738.017 805.494 735.218 805.277 732.82 806.204C732.075 806.499 730.75 807.284 730.127 807.81Z" fill="white"/>
<path d="M701.798 852.554C698.376 854.842 694.514 858.405 693.077 860.599C692.086 862.108 691.635 863.326 690.578 867.352C690.148 868.985 689.624 870.798 689.417 871.376C688.818 873.023 687.416 875.801 684.787 880.526C680.545 888.151 679.353 890.86 679.381 892.801C679.411 895.085 680.187 897.584 681.666 900.146C682.84 902.197 683.958 903.592 685.532 904.985C687.051 906.337 688.318 907.073 690.397 907.81C697.286 910.247 705.691 909.31 716.421 904.906C720.215 903.351 723.784 901.624 732.847 896.964C736.359 895.155 743.323 891.165 745.274 889.842C753.127 884.526 757.594 879.76 759.989 874.108C760.583 872.703 761.269 870.307 761.406 869.104C761.651 867.077 761.217 865.298 759.945 863.095C759.183 861.775 758.411 860.763 757.326 859.64C754.614 856.853 752.362 855.529 748.787 854.615C747.089 854.178 745.944 853.996 742.056 853.533C738.01 853.047 736.522 852.792 734.591 852.241C732.911 851.763 731.686 851.262 728.193 849.645C725.219 848.259 723.569 847.618 721.945 847.201C720.252 846.773 719.05 846.655 717.49 846.764C712.502 847.113 706.749 849.238 701.798 852.554Z" fill="white"/>
<path d="M947.936 607.328C941.266 604.738 932.243 607.755 925.407 614.857C923.683 616.653 922.548 618.132 921.175 620.349C919.017 623.852 917.729 627.471 917.362 631.133C917.148 633.27 917.273 635.071 917.783 636.979C918.458 639.504 919.573 641.356 921.388 642.987C922.238 643.748 924.104 644.804 925.229 645.162C927.463 645.869 929.699 646.014 932.281 645.631C937.423 644.85 942.696 641.897 947.123 637.309C949.096 635.261 950.517 633.322 951.969 630.682C953.965 627.044 954.949 623.863 955.146 620.333C955.263 618.328 955.136 617.036 954.645 615.201C953.994 612.743 952.91 610.909 951.177 609.335C950.6 608.804 948.677 607.611 947.936 607.328Z" fill="white"/>
<path d="M913.568 590.142C912.107 589.537 911.061 589.277 909.846 589.201C905.671 588.956 901.22 590.99 897.417 594.875C895.653 596.669 894.432 598.296 893.065 600.683C890.693 604.791 889.353 609.058 889.017 613.55C888.815 616.277 889.006 618.667 889.604 620.929C890.47 624.167 891.995 626.641 894.209 628.357C896.926 630.478 900.755 630.98 904.481 629.716C908.018 628.509 911.349 625.964 914.335 622.179C915.323 620.917 917.649 616.908 918.235 615.424C920.615 609.446 921.206 603.809 919.986 598.95C919.009 595.095 917.275 592.459 914.582 590.727C914.162 590.464 913.709 590.203 913.568 590.142Z" fill="white"/>
<path d="M874.822 600.679C873.018 599.95 871.625 599.749 869.901 599.962C866.586 600.37 863.244 602.555 860.396 606.19C859.548 607.262 857.771 610.287 857.201 611.635C856.317 613.707 855.575 616.018 855.143 618.1C853.496 626.033 854.954 633.903 858.858 638.24C859.742 639.23 860.286 639.658 861.526 640.374C862.451 640.898 862.812 641.065 863.468 641.245C864.353 641.496 865.805 641.647 866.612 641.582C869.553 641.353 872.368 639.865 875.043 637.14C876.454 635.705 876.953 635.004 878.459 632.395C879.732 630.173 879.865 629.906 880.364 628.59C881.292 626.137 881.864 623.958 882.23 621.503C883.415 613.523 881.474 606.04 877.244 602.286C876.705 601.797 875.295 600.869 874.822 600.679Z" fill="white"/>
<path d="M951.179 651.418C945.027 649.21 936.158 652.285 929.594 658.898C926.417 662.094 924.034 665.987 922.987 669.673C921.715 674.166 922.373 678.233 924.784 680.885C925.45 681.623 925.97 682.038 926.882 682.565C927.904 683.155 928.713 683.466 929.9 683.734C932.25 684.258 934.846 684.122 937.691 683.338C939.394 682.874 940.452 682.464 942.084 681.657C946.111 679.671 949.715 676.69 952.635 672.93C953.51 671.811 955.355 668.669 955.816 667.529C956.961 664.681 957.425 662.345 957.293 659.998C957.129 657.092 955.918 654.56 953.916 652.946C953.288 652.449 951.945 651.694 951.179 651.418Z" fill="white"/>
<path d="M898.265 649.256C894.572 647.436 889.556 645.873 886.937 645.725C885.135 645.622 883.854 645.841 879.84 646.939C878.21 647.383 876.378 647.835 875.774 647.945C874.048 648.25 870.941 648.424 865.535 648.51C856.811 648.649 853.869 648.971 852.202 649.966C850.238 651.134 848.463 653.056 846.984 655.617C845.794 657.659 845.145 659.325 844.725 661.384C844.314 663.376 844.31 664.842 844.712 667.011C846.046 674.195 851.059 681.006 860.238 688.096C863.481 690.604 866.762 692.831 875.329 698.35C878.652 700.487 885.589 704.524 887.711 705.551C896.241 709.694 902.602 711.18 908.694 710.428C910.208 710.24 912.626 709.636 913.737 709.153C915.614 708.352 916.938 707.086 918.21 704.883C918.972 703.563 919.463 702.389 919.892 700.887C920.95 697.145 920.971 694.533 919.975 690.98C919.504 689.291 919.089 688.208 917.547 684.61C915.944 680.863 915.421 679.446 914.933 677.499C914.506 675.805 914.327 674.494 913.982 670.66C913.695 667.391 913.426 665.642 912.974 664.028C912.499 662.347 912 661.247 911.126 659.951C908.329 655.805 903.612 651.885 898.265 649.256Z" fill="white"/>
<path d="M963.238 209.709C951.978 205.335 936.744 210.429 925.203 222.42C922.294 225.452 920.377 227.95 918.059 231.692C914.416 237.606 912.24 243.716 911.621 249.899C911.26 253.505 911.471 256.546 912.333 259.768C913.472 264.03 915.355 267.157 918.419 269.91C919.854 271.196 923.004 272.98 924.903 273.584C928.675 274.777 932.449 275.022 936.809 274.375C945.49 273.057 954.393 268.07 961.867 260.325C965.198 256.868 967.597 253.594 970.048 249.137C973.418 242.996 975.079 237.625 975.412 231.664C975.61 228.28 975.394 226.098 974.566 223C973.468 218.85 971.637 215.754 968.711 213.097C967.736 212.2 964.491 210.186 963.238 209.709Z" fill="white"/>
<path d="M905.216 180.693C902.749 179.673 900.983 179.234 898.933 179.105C891.883 178.692 884.37 182.125 877.948 188.685C874.971 191.713 872.91 194.461 870.601 198.49C866.597 205.426 864.334 212.629 863.767 220.213C863.427 224.817 863.748 228.852 864.758 232.67C866.22 238.138 868.795 242.315 872.532 245.211C877.121 248.792 883.585 249.641 889.875 247.506C895.846 245.468 901.469 241.172 906.511 234.782C908.18 232.652 912.106 225.882 913.096 223.376C917.114 213.284 918.112 203.768 916.053 195.564C914.402 189.056 911.474 184.605 906.928 181.682C906.219 181.237 905.455 180.796 905.216 180.693Z" fill="white"/>
<path d="M839.802 198.483C836.755 197.252 834.404 196.914 831.493 197.272C825.896 197.962 820.255 201.65 815.447 207.787C814.015 209.598 811.015 214.704 810.052 216.98C808.559 220.478 807.308 224.379 806.577 227.895C803.798 241.287 806.259 254.576 812.849 261.897C814.343 263.568 815.26 264.291 817.354 265.5C818.916 266.384 819.526 266.666 820.632 266.971C822.126 267.394 824.578 267.649 825.941 267.539C830.906 267.153 835.658 264.64 840.175 260.04C842.557 257.617 843.399 256.433 845.942 252.029C848.091 248.277 848.316 247.826 849.159 245.606C850.725 241.464 851.69 237.784 852.309 233.64C854.309 220.168 851.032 207.534 843.891 201.196C842.98 200.371 840.601 198.804 839.802 198.483Z" fill="white"/>
<path d="M968.714 284.145C958.328 280.417 943.354 285.608 932.272 296.773C926.909 302.169 922.885 308.742 921.119 314.965C918.97 322.55 920.081 329.416 924.152 333.893C925.276 335.14 926.154 335.84 927.695 336.73C929.42 337.726 930.785 338.251 932.789 338.704C936.757 339.588 941.139 339.358 945.942 338.035C948.818 337.252 950.605 336.56 953.359 335.196C960.159 331.844 966.243 326.812 971.172 320.463C972.65 318.573 975.765 313.269 976.542 311.345C978.476 306.536 979.259 302.593 979.036 298.631C978.76 293.725 976.715 289.45 973.336 286.725C972.275 285.885 970.008 284.611 968.714 284.145Z" fill="white"/>
<path d="M879.381 280.495C873.146 277.423 864.678 274.784 860.256 274.534C857.213 274.36 855.051 274.729 848.273 276.582C845.522 277.332 842.43 278.096 841.41 278.281C838.496 278.796 833.251 279.091 824.123 279.236C809.394 279.47 804.427 280.013 801.613 281.693C798.297 283.665 795.3 286.91 792.803 291.235C790.795 294.682 789.698 297.494 788.99 300.971C788.296 304.333 788.29 306.808 788.968 310.47C791.219 322.599 799.684 334.097 815.18 346.068C820.656 350.302 826.194 354.062 840.659 363.38C846.268 366.987 857.98 373.802 861.562 375.537C875.963 382.532 886.702 385.04 896.988 383.771C899.543 383.452 903.626 382.434 905.501 381.618C908.671 380.266 910.906 378.128 913.053 374.409C914.339 372.181 915.168 370.198 915.894 367.663C917.68 361.346 917.715 356.935 916.033 350.936C915.238 348.086 914.537 346.257 911.933 340.183C909.228 333.857 908.344 331.465 907.521 328.177C906.801 325.317 906.498 323.103 905.915 316.631C905.431 311.112 904.976 308.159 904.214 305.434C903.411 302.597 902.569 300.739 901.093 298.551C896.371 291.552 888.409 284.933 879.381 280.495Z" fill="white"/>
<path d="M669.323 57.5742C663.745 62.0549 661.846 71.3779 664.579 80.8492C665.272 83.2396 665.986 84.9623 667.219 87.26C669.174 90.88 671.664 93.8057 674.652 95.9545C676.395 97.2079 678.017 97.9999 679.925 98.5124C682.449 99.1901 684.61 99.1503 686.93 98.3941C688.015 98.0386 689.862 96.951 690.735 96.1558C692.464 94.5744 693.707 92.7109 694.667 90.2826C696.562 85.4395 696.64 79.3959 694.881 73.2679C694.094 70.5356 693.125 68.3353 691.565 65.7582C689.412 62.2105 687.149 59.7682 684.19 57.8318C682.513 56.728 681.33 56.1925 679.496 55.6999C677.041 55.0342 674.911 55.056 672.682 55.7705C671.933 56.0049 669.939 57.073 669.323 57.5742Z" fill="white"/>
<path d="M637.255 78.7442C636.001 79.7076 635.253 80.4833 634.579 81.4969C632.28 84.9906 631.815 89.8615 633.279 95.0983C633.95 97.5224 634.749 99.3935 636.133 101.771C638.504 105.879 641.529 109.173 645.251 111.71C647.512 113.248 649.678 114.278 651.935 114.891C655.173 115.761 658.078 115.676 660.671 114.617C663.866 113.324 666.216 110.26 666.984 106.401C667.707 102.734 667.169 98.5774 665.384 94.0989C664.785 92.6117 662.475 88.5928 661.483 87.3431C657.496 82.293 652.911 78.9629 648.093 77.5897C644.265 76.5089 641.115 76.6925 638.269 78.1587C637.831 78.3908 637.378 78.652 637.255 78.7442Z" fill="white"/>
<path d="M627.008 117.568C625.474 118.766 624.604 119.872 623.926 121.472C622.622 124.546 622.843 128.532 624.567 132.816C625.072 134.087 626.803 137.139 627.685 138.306C629.037 140.108 630.668 141.905 632.255 143.322C638.302 148.714 645.847 151.387 651.554 150.174C652.854 149.903 653.496 149.646 654.737 148.93C655.653 148.391 655.978 148.162 656.462 147.684C657.121 147.043 657.978 145.861 658.326 145.129C659.598 142.468 659.716 139.286 658.694 135.607C658.157 133.668 657.799 132.885 656.293 130.276C655.005 128.063 654.84 127.814 653.951 126.724C652.29 124.694 650.688 123.109 648.746 121.565C642.428 116.548 634.976 114.488 629.61 116.274C628.917 116.497 627.409 117.253 627.008 117.568Z" fill="white"/>
<path d="M709.127 76.8103C704.139 81.0337 702.367 90.2522 704.812 99.2437C705.992 103.593 708.172 107.603 710.841 110.353C714.096 113.701 717.946 115.164 721.449 114.402C722.421 114.195 723.04 113.952 723.953 113.425C724.975 112.835 725.649 112.29 726.475 111.397C728.103 109.623 729.283 107.307 730.027 104.451C730.477 102.744 730.651 101.623 730.767 99.8063C731.061 95.3252 730.282 90.7142 728.485 86.3052C727.953 84.9877 726.155 81.8188 725.398 80.85C723.504 78.4341 721.714 76.8644 719.615 75.8059C717.017 74.4943 714.218 74.2773 711.82 75.2038C711.075 75.4986 709.749 76.2844 709.127 76.8103Z" fill="white"/>
<path d="M680.798 121.554C677.376 123.842 673.514 127.405 672.077 129.599C671.086 131.108 670.635 132.326 669.578 136.352C669.148 137.985 668.624 139.798 668.417 140.376C667.818 142.023 666.416 144.801 663.787 149.526C659.545 157.151 658.353 159.86 658.381 161.801C658.411 164.085 659.187 166.584 660.666 169.146C661.84 171.197 662.958 172.592 664.532 173.985C666.051 175.337 667.318 176.073 669.397 176.81C676.286 179.247 684.691 178.31 695.421 173.906C699.215 172.351 702.784 170.624 711.847 165.964C715.359 164.155 722.323 160.165 724.274 158.842C732.127 153.526 736.594 148.76 738.989 143.108C739.583 141.703 740.269 139.307 740.406 138.104C740.651 136.077 740.217 134.298 738.945 132.095C738.183 130.775 737.411 129.763 736.326 128.64C733.614 125.853 731.362 124.529 727.787 123.615C726.089 123.178 724.944 122.996 721.056 122.533C717.01 122.047 715.522 121.792 713.591 121.241C711.911 120.763 710.686 120.262 707.193 118.645C704.219 117.259 702.569 116.618 700.945 116.201C699.252 115.773 698.05 115.655 696.49 115.764C691.502 116.113 685.749 118.238 680.798 121.554Z" fill="white"/>
<path d="M1189.94 420.328C1183.27 417.738 1174.24 420.755 1167.41 427.857C1165.68 429.653 1164.55 431.132 1163.17 433.349C1161.02 436.852 1159.73 440.471 1159.36 444.133C1159.15 446.27 1159.27 448.071 1159.78 449.979C1160.46 452.504 1161.57 454.356 1163.39 455.987C1164.24 456.748 1166.1 457.804 1167.23 458.162C1169.46 458.869 1171.7 459.014 1174.28 458.631C1179.42 457.85 1184.7 454.897 1189.12 450.309C1191.1 448.261 1192.52 446.322 1193.97 443.682C1195.97 440.044 1196.95 436.863 1197.15 433.333C1197.26 431.328 1197.14 430.036 1196.65 428.201C1195.99 425.743 1194.91 423.909 1193.18 422.335C1192.6 421.804 1190.68 420.611 1189.94 420.328Z" fill="white"/>
<path d="M1155.57 403.142C1154.11 402.537 1153.06 402.277 1151.85 402.201C1147.67 401.956 1143.22 403.99 1139.42 407.875C1137.65 409.669 1136.43 411.296 1135.06 413.683C1132.69 417.791 1131.35 422.058 1131.02 426.55C1130.82 429.277 1131.01 431.667 1131.6 433.929C1132.47 437.167 1134 439.641 1136.21 441.357C1138.93 443.478 1142.76 443.98 1146.48 442.716C1150.02 441.509 1153.35 438.964 1156.33 435.179C1157.32 433.917 1159.65 429.908 1160.24 428.424C1162.62 422.446 1163.21 416.809 1161.99 411.95C1161.01 408.095 1159.27 405.459 1156.58 403.727C1156.16 403.464 1155.71 403.203 1155.57 403.142Z" fill="white"/>
<path d="M1116.82 413.679C1115.02 412.95 1113.62 412.749 1111.9 412.962C1108.59 413.37 1105.24 415.555 1102.4 419.19C1101.55 420.262 1099.77 423.287 1099.2 424.635C1098.32 426.707 1097.58 429.018 1097.14 431.1C1095.5 439.033 1096.95 446.903 1100.86 451.24C1101.74 452.23 1102.29 452.658 1103.53 453.374C1104.45 453.898 1104.81 454.065 1105.47 454.245C1106.35 454.496 1107.8 454.647 1108.61 454.582C1111.55 454.353 1114.37 452.865 1117.04 450.14C1118.45 448.705 1118.95 448.004 1120.46 445.395C1121.73 443.173 1121.86 442.906 1122.36 441.59C1123.29 439.137 1123.86 436.958 1124.23 434.503C1125.42 426.523 1123.47 419.04 1119.24 415.286C1118.7 414.797 1117.3 413.869 1116.82 413.679Z" fill="white"/>
<path d="M1193.18 464.418C1187.03 462.21 1178.16 465.285 1171.59 471.898C1168.42 475.094 1166.03 478.987 1164.99 482.673C1163.71 487.166 1164.37 491.233 1166.78 493.885C1167.45 494.623 1167.97 495.038 1168.88 495.565C1169.9 496.155 1170.71 496.466 1171.9 496.734C1174.25 497.258 1176.85 497.122 1179.69 496.338C1181.39 495.874 1182.45 495.464 1184.08 494.657C1188.11 492.671 1191.72 489.69 1194.64 485.93C1195.51 484.811 1197.36 481.669 1197.82 480.529C1198.96 477.681 1199.43 475.345 1199.29 472.998C1199.13 470.092 1197.92 467.56 1195.92 465.946C1195.29 465.449 1193.95 464.694 1193.18 464.418Z" fill="white"/>
<path d="M1140.27 462.256C1136.57 460.436 1131.56 458.873 1128.94 458.725C1127.14 458.622 1125.85 458.841 1121.84 459.939C1120.21 460.383 1118.38 460.835 1117.77 460.945C1116.05 461.25 1112.94 461.424 1107.53 461.51C1098.81 461.649 1095.87 461.971 1094.2 462.966C1092.24 464.134 1090.46 466.056 1088.98 468.617C1087.79 470.659 1087.14 472.325 1086.73 474.384C1086.31 476.376 1086.31 477.842 1086.71 480.011C1088.05 487.195 1093.06 494.006 1102.24 501.096C1105.48 503.604 1108.76 505.831 1117.33 511.35C1120.65 513.487 1127.59 517.524 1129.71 518.551C1138.24 522.694 1144.6 524.18 1150.69 523.428C1152.21 523.24 1154.63 522.636 1155.74 522.153C1157.61 521.352 1158.94 520.086 1160.21 517.883C1160.97 516.563 1161.46 515.389 1161.89 513.887C1162.95 510.145 1162.97 507.533 1161.97 503.98C1161.5 502.291 1161.09 501.208 1159.55 497.61C1157.94 493.863 1157.42 492.446 1156.93 490.499C1156.51 488.805 1156.33 487.494 1155.98 483.66C1155.7 480.391 1155.43 478.642 1154.97 477.028C1154.5 475.347 1154 474.247 1153.13 472.951C1150.33 468.805 1145.61 464.885 1140.27 462.256Z" fill="white"/>
<path d="M1568.94 292.328C1562.27 289.738 1553.24 292.755 1546.41 299.857C1544.68 301.653 1543.55 303.132 1542.17 305.349C1540.02 308.852 1538.73 312.471 1538.36 316.133C1538.15 318.27 1538.27 320.071 1538.78 321.979C1539.46 324.504 1540.57 326.356 1542.39 327.987C1543.24 328.748 1545.1 329.804 1546.23 330.162C1548.46 330.869 1550.7 331.014 1553.28 330.631C1558.42 329.85 1563.7 326.897 1568.12 322.309C1570.1 320.261 1571.52 318.322 1572.97 315.682C1574.97 312.044 1575.95 308.863 1576.15 305.333C1576.26 303.328 1576.14 302.036 1575.65 300.201C1574.99 297.743 1573.91 295.909 1572.18 294.335C1571.6 293.804 1569.68 292.611 1568.94 292.328Z" fill="white"/>
<path d="M1534.57 275.142C1533.11 274.537 1532.06 274.277 1530.85 274.201C1526.67 273.956 1522.22 275.99 1518.42 279.875C1516.65 281.669 1515.43 283.296 1514.06 285.683C1511.69 289.791 1510.35 294.058 1510.02 298.55C1509.82 301.277 1510.01 303.667 1510.6 305.929C1511.47 309.167 1513 311.641 1515.21 313.357C1517.93 315.478 1521.76 315.98 1525.48 314.716C1529.02 313.509 1532.35 310.964 1535.33 307.179C1536.32 305.917 1538.65 301.908 1539.24 300.424C1541.62 294.446 1542.21 288.809 1540.99 283.95C1540.01 280.095 1538.27 277.459 1535.58 275.727C1535.16 275.464 1534.71 275.203 1534.57 275.142Z" fill="white"/>
<path d="M1495.82 285.679C1494.02 284.95 1492.62 284.749 1490.9 284.962C1487.59 285.37 1484.24 287.555 1481.4 291.19C1480.55 292.262 1478.77 295.287 1478.2 296.635C1477.32 298.707 1476.58 301.018 1476.14 303.1C1474.5 311.033 1475.95 318.903 1479.86 323.24C1480.74 324.23 1481.29 324.658 1482.53 325.374C1483.45 325.898 1483.81 326.065 1484.47 326.245C1485.35 326.496 1486.8 326.647 1487.61 326.582C1490.55 326.353 1493.37 324.865 1496.04 322.14C1497.45 320.705 1497.95 320.004 1499.46 317.395C1500.73 315.173 1500.86 314.906 1501.36 313.59C1502.29 311.137 1502.86 308.958 1503.23 306.503C1504.42 298.523 1502.47 291.04 1498.24 287.286C1497.7 286.797 1496.3 285.869 1495.82 285.679Z" fill="white"/>
<path d="M1572.18 336.418C1566.03 334.21 1557.16 337.285 1550.59 343.898C1547.42 347.094 1545.03 350.987 1543.99 354.673C1542.71 359.166 1543.37 363.233 1545.78 365.885C1546.45 366.623 1546.97 367.038 1547.88 367.565C1548.9 368.155 1549.71 368.466 1550.9 368.734C1553.25 369.258 1555.85 369.122 1558.69 368.338C1560.39 367.874 1561.45 367.464 1563.08 366.657C1567.11 364.671 1570.72 361.69 1573.64 357.93C1574.51 356.811 1576.36 353.669 1576.82 352.529C1577.96 349.681 1578.43 347.345 1578.29 344.998C1578.13 342.092 1576.92 339.56 1574.92 337.946C1574.29 337.449 1572.95 336.694 1572.18 336.418Z" fill="white"/>
<path d="M1519.27 334.256C1515.57 332.436 1510.56 330.873 1507.94 330.725C1506.14 330.622 1504.85 330.841 1500.84 331.939C1499.21 332.383 1497.38 332.835 1496.77 332.945C1495.05 333.25 1491.94 333.424 1486.53 333.51C1477.81 333.649 1474.87 333.971 1473.2 334.966C1471.24 336.134 1469.46 338.056 1467.98 340.617C1466.79 342.659 1466.14 344.325 1465.73 346.384C1465.31 348.376 1465.31 349.842 1465.71 352.011C1467.05 359.195 1472.06 366.006 1481.24 373.096C1484.48 375.604 1487.76 377.831 1496.33 383.35C1499.65 385.487 1506.59 389.524 1508.71 390.551C1517.24 394.694 1523.6 396.18 1529.69 395.428C1531.21 395.24 1533.63 394.636 1534.74 394.153C1536.61 393.352 1537.94 392.086 1539.21 389.883C1539.97 388.563 1540.46 387.389 1540.89 385.887C1541.95 382.145 1541.97 379.533 1540.97 375.98C1540.5 374.291 1540.09 373.208 1538.55 369.61C1536.94 365.863 1536.42 364.446 1535.93 362.499C1535.51 360.805 1535.33 359.494 1534.98 355.66C1534.7 352.391 1534.43 350.642 1533.97 349.028C1533.5 347.347 1533 346.247 1532.13 344.951C1529.33 340.805 1524.61 336.885 1519.27 334.256Z" fill="white"/>
<path d="M1312.15 238.085C1308.52 241 1307.29 247.066 1309.07 253.229C1309.52 254.784 1309.98 255.905 1310.78 257.4C1312.06 259.755 1313.68 261.659 1315.62 263.057C1316.75 263.872 1317.81 264.388 1319.05 264.721C1320.69 265.162 1322.1 265.136 1323.61 264.644C1324.31 264.413 1325.52 263.705 1326.08 263.188C1327.21 262.159 1328.02 260.946 1328.64 259.367C1329.88 256.215 1329.93 252.283 1328.78 248.296C1328.27 246.518 1327.64 245.087 1326.62 243.41C1325.22 241.102 1323.75 239.513 1321.83 238.253C1320.73 237.535 1319.96 237.186 1318.77 236.866C1317.17 236.432 1315.79 236.447 1314.34 236.912C1313.85 237.064 1312.55 237.759 1312.15 238.085Z" fill="white"/>
<path d="M1291.29 251.859C1290.47 252.486 1289.98 252.991 1289.55 253.65C1288.05 255.923 1287.75 259.093 1288.7 262.5C1289.14 264.077 1289.66 265.295 1290.56 266.841C1292.1 269.514 1294.07 271.657 1296.49 273.308C1297.96 274.309 1299.37 274.979 1300.84 275.378C1302.95 275.944 1304.84 275.889 1306.52 275.2C1308.6 274.358 1310.13 272.364 1310.63 269.854C1311.1 267.468 1310.75 264.764 1309.59 261.85C1309.2 260.882 1307.7 258.267 1307.05 257.454C1304.46 254.168 1301.47 252.002 1298.34 251.108C1295.85 250.405 1293.8 250.524 1291.95 251.478C1291.66 251.629 1291.37 251.799 1291.29 251.859Z" fill="white"/>
<path d="M1284.62 277.119C1283.62 277.899 1283.06 278.618 1282.62 279.659C1281.77 281.66 1281.91 284.253 1283.03 287.041C1283.36 287.867 1284.49 289.853 1285.06 290.612C1285.94 291.785 1287 292.954 1288.03 293.876C1291.97 297.384 1296.88 299.123 1300.59 298.334C1301.44 298.158 1301.85 297.991 1302.66 297.525C1303.26 297.174 1303.47 297.025 1303.78 296.714C1304.21 296.297 1304.77 295.528 1305 295.052C1305.82 293.321 1305.9 291.25 1305.24 288.856C1304.89 287.594 1304.65 287.085 1303.67 285.388C1302.84 283.948 1302.73 283.786 1302.15 283.077C1301.07 281.756 1300.03 280.725 1298.76 279.72C1294.65 276.456 1289.8 275.115 1286.31 276.277C1285.86 276.422 1284.88 276.914 1284.62 277.119Z" fill="white"/>
<path d="M1338.05 250.601C1334.81 253.349 1333.65 259.347 1335.24 265.197C1336.01 268.026 1337.43 270.636 1339.17 272.425C1341.28 274.604 1343.79 275.556 1346.07 275.06C1346.7 274.925 1347.1 274.767 1347.7 274.424C1348.36 274.04 1348.8 273.685 1349.34 273.104C1350.4 271.95 1351.16 270.443 1351.65 268.585C1351.94 267.474 1352.05 266.745 1352.13 265.563C1352.32 262.647 1351.81 259.647 1350.65 256.779C1350.3 255.921 1349.13 253.86 1348.64 253.229C1347.4 251.657 1346.24 250.636 1344.87 249.947C1343.18 249.094 1341.36 248.953 1339.8 249.556C1339.32 249.747 1338.46 250.259 1338.05 250.601Z" fill="white"/>
<path d="M1319.62 279.713C1317.39 281.202 1314.88 283.52 1313.94 284.947C1313.3 285.929 1313.01 286.722 1312.32 289.341C1312.04 290.404 1311.7 291.583 1311.56 291.959C1311.17 293.031 1310.26 294.838 1308.55 297.913C1305.79 302.874 1305.01 304.636 1305.03 305.899C1305.05 307.386 1305.56 309.011 1306.52 310.678C1307.28 312.012 1308.01 312.92 1309.04 313.827C1310.02 314.706 1310.85 315.185 1312.2 315.664C1316.68 317.25 1322.15 316.641 1329.13 313.775C1331.6 312.764 1333.92 311.64 1339.82 308.608C1342.11 307.431 1346.64 304.835 1347.91 303.974C1353.02 300.515 1355.92 297.414 1357.48 293.737C1357.87 292.823 1358.31 291.264 1358.4 290.481C1358.56 289.162 1358.28 288.004 1357.45 286.571C1356.96 285.713 1356.45 285.054 1355.75 284.323C1353.98 282.51 1352.52 281.648 1350.19 281.054C1349.09 280.77 1348.34 280.651 1345.81 280.35C1343.18 280.034 1342.21 279.868 1340.95 279.509C1339.86 279.198 1339.06 278.873 1336.79 277.82C1334.86 276.918 1333.78 276.501 1332.73 276.23C1331.63 275.952 1330.84 275.875 1329.83 275.946C1326.58 276.173 1322.84 277.555 1319.62 279.713Z" fill="white"/>
<path d="M1206.32 726.574C1200.74 731.055 1198.85 740.378 1201.58 749.849C1202.27 752.24 1202.99 753.962 1204.22 756.26C1206.17 759.88 1208.66 762.806 1211.65 764.955C1213.39 766.208 1215.02 767 1216.93 767.513C1219.45 768.19 1221.61 768.15 1223.93 767.394C1225.01 767.039 1226.86 765.951 1227.73 765.156C1229.46 763.575 1230.71 761.711 1231.67 759.283C1233.56 754.44 1233.64 748.396 1231.88 742.268C1231.09 739.536 1230.13 737.335 1228.56 734.758C1226.41 731.211 1224.15 728.768 1221.19 726.832C1219.51 725.728 1218.33 725.193 1216.5 724.7C1214.04 724.034 1211.91 724.056 1209.68 724.771C1208.93 725.005 1206.94 726.073 1206.32 726.574Z" fill="white"/>
<path d="M1174.25 747.744C1173 748.708 1172.25 749.483 1171.58 750.497C1169.28 753.991 1168.82 758.862 1170.28 764.098C1170.95 766.522 1171.75 768.394 1173.13 770.771C1175.5 774.879 1178.53 778.173 1182.25 780.71C1184.51 782.248 1186.68 783.278 1188.94 783.891C1192.17 784.761 1195.08 784.676 1197.67 783.617C1200.87 782.324 1203.22 779.26 1203.98 775.401C1204.71 771.734 1204.17 767.577 1202.38 763.099C1201.79 761.612 1199.48 757.593 1198.48 756.343C1194.5 751.293 1189.91 747.963 1185.09 746.59C1181.26 745.509 1178.12 745.692 1175.27 747.159C1174.83 747.391 1174.38 747.652 1174.25 747.744Z" fill="white"/>
<path d="M1164.01 786.568C1162.47 787.766 1161.6 788.872 1160.93 790.471C1159.62 793.546 1159.84 797.532 1161.57 801.816C1162.07 803.087 1163.8 806.139 1164.68 807.306C1166.04 809.108 1167.67 810.905 1169.26 812.321C1175.3 817.713 1182.85 820.386 1188.55 819.174C1189.85 818.903 1190.5 818.646 1191.74 817.93C1192.65 817.391 1192.98 817.161 1193.46 816.684C1194.12 816.043 1194.98 814.861 1195.33 814.129C1196.6 811.468 1196.72 808.286 1195.69 804.607C1195.16 802.667 1194.8 801.885 1193.29 799.276C1192 797.063 1191.84 796.814 1190.95 795.724C1189.29 793.694 1187.69 792.109 1185.75 790.564C1179.43 785.548 1171.98 783.488 1166.61 785.273C1165.92 785.497 1164.41 786.253 1164.01 786.568Z" fill="white"/>
<path d="M1246.13 745.81C1241.14 750.034 1239.37 759.252 1241.81 768.244C1242.99 772.593 1245.17 776.603 1247.84 779.353C1251.1 782.701 1254.95 784.164 1258.45 783.402C1259.42 783.195 1260.04 782.952 1260.95 782.425C1261.98 781.835 1262.65 781.29 1263.47 780.397C1265.1 778.623 1266.28 776.307 1267.03 773.451C1267.48 771.744 1267.65 770.623 1267.77 768.806C1268.06 764.325 1267.28 759.714 1265.49 755.305C1264.95 753.988 1263.16 750.819 1262.4 749.85C1260.5 747.434 1258.71 745.864 1256.62 744.806C1254.02 743.494 1251.22 743.277 1248.82 744.204C1248.07 744.499 1246.75 745.284 1246.13 745.81Z" fill="white"/>
<path d="M1217.8 790.554C1214.38 792.842 1210.51 796.405 1209.08 798.599C1208.09 800.108 1207.63 801.326 1206.58 805.352C1206.15 806.985 1205.62 808.798 1205.42 809.376C1204.82 811.023 1203.42 813.801 1200.79 818.526C1196.55 826.151 1195.35 828.86 1195.38 830.801C1195.41 833.085 1196.19 835.584 1197.67 838.146C1198.84 840.197 1199.96 841.592 1201.53 842.985C1203.05 844.337 1204.32 845.073 1206.4 845.81C1213.29 848.247 1221.69 847.31 1232.42 842.906C1236.21 841.351 1239.78 839.624 1248.85 834.964C1252.36 833.155 1259.32 829.165 1261.27 827.842C1269.13 822.526 1273.59 817.76 1275.99 812.108C1276.58 810.703 1277.27 808.307 1277.41 807.104C1277.65 805.077 1277.22 803.298 1275.94 801.095C1275.18 799.775 1274.41 798.763 1273.33 797.64C1270.61 794.853 1268.36 793.529 1264.79 792.615C1263.09 792.178 1261.94 791.996 1258.06 791.533C1254.01 791.047 1252.52 790.792 1250.59 790.241C1248.91 789.763 1247.69 789.262 1244.19 787.645C1241.22 786.259 1239.57 785.618 1237.95 785.201C1236.25 784.773 1235.05 784.655 1233.49 784.764C1228.5 785.113 1222.75 787.238 1217.8 790.554Z" fill="white"/>
<path d="M1577.32 531.574C1571.74 536.055 1569.85 545.378 1572.58 554.849C1573.27 557.24 1573.99 558.962 1575.22 561.26C1577.17 564.88 1579.66 567.806 1582.65 569.955C1584.39 571.208 1586.02 572 1587.93 572.513C1590.45 573.19 1592.61 573.15 1594.93 572.394C1596.01 572.039 1597.86 570.951 1598.73 570.156C1600.46 568.575 1601.71 566.711 1602.67 564.283C1604.56 559.44 1604.64 553.396 1602.88 547.268C1602.09 544.536 1601.13 542.335 1599.56 539.758C1597.41 536.211 1595.15 533.768 1592.19 531.832C1590.51 530.728 1589.33 530.193 1587.5 529.7C1585.04 529.034 1582.91 529.056 1580.68 529.771C1579.93 530.005 1577.94 531.073 1577.32 531.574Z" fill="white"/>
<path d="M1545.25 552.744C1544 553.708 1543.25 554.483 1542.58 555.497C1540.28 558.991 1539.82 563.862 1541.28 569.098C1541.95 571.522 1542.75 573.394 1544.13 575.771C1546.5 579.879 1549.53 583.173 1553.25 585.71C1555.51 587.248 1557.68 588.278 1559.94 588.891C1563.17 589.761 1566.08 589.676 1568.67 588.617C1571.87 587.324 1574.22 584.26 1574.98 580.401C1575.71 576.734 1575.17 572.577 1573.38 568.099C1572.79 566.612 1570.48 562.593 1569.48 561.343C1565.5 556.293 1560.91 552.963 1556.09 551.59C1552.26 550.509 1549.12 550.692 1546.27 552.159C1545.83 552.391 1545.38 552.652 1545.25 552.744Z" fill="white"/>
<path d="M1535.01 591.568C1533.47 592.766 1532.6 593.872 1531.93 595.471C1530.62 598.546 1530.84 602.532 1532.57 606.816C1533.07 608.087 1534.8 611.139 1535.68 612.306C1537.04 614.108 1538.67 615.905 1540.26 617.321C1546.3 622.713 1553.85 625.386 1559.55 624.174C1560.85 623.903 1561.5 623.646 1562.74 622.93C1563.65 622.391 1563.98 622.161 1564.46 621.684C1565.12 621.043 1565.98 619.861 1566.33 619.129C1567.6 616.468 1567.72 613.286 1566.69 609.607C1566.16 607.667 1565.8 606.885 1564.29 604.276C1563 602.063 1562.84 601.814 1561.95 600.724C1560.29 598.694 1558.69 597.109 1556.75 595.564C1550.43 590.548 1542.98 588.488 1537.61 590.273C1536.92 590.497 1535.41 591.253 1535.01 591.568Z" fill="white"/>
<path d="M1617.13 550.81C1612.14 555.034 1610.37 564.252 1612.81 573.244C1613.99 577.593 1616.17 581.603 1618.84 584.353C1622.1 587.701 1625.95 589.164 1629.45 588.402C1630.42 588.195 1631.04 587.952 1631.95 587.425C1632.98 586.835 1633.65 586.29 1634.47 585.397C1636.1 583.623 1637.28 581.307 1638.03 578.451C1638.48 576.744 1638.65 575.623 1638.77 573.806C1639.06 569.325 1638.28 564.714 1636.49 560.305C1635.95 558.988 1634.16 555.819 1633.4 554.85C1631.5 552.434 1629.71 550.864 1627.62 549.806C1625.02 548.494 1622.22 548.277 1619.82 549.204C1619.07 549.499 1617.75 550.284 1617.13 550.81Z" fill="white"/>
<path d="M1588.8 595.554C1585.38 597.842 1581.51 601.405 1580.08 603.599C1579.09 605.108 1578.63 606.326 1577.58 610.352C1577.15 611.985 1576.62 613.798 1576.42 614.376C1575.82 616.023 1574.42 618.801 1571.79 623.526C1567.55 631.151 1566.35 633.86 1566.38 635.801C1566.41 638.085 1567.19 640.584 1568.67 643.146C1569.84 645.197 1570.96 646.592 1572.53 647.985C1574.05 649.337 1575.32 650.073 1577.4 650.81C1584.29 653.247 1592.69 652.31 1603.42 647.906C1607.21 646.351 1610.78 644.624 1619.85 639.964C1623.36 638.155 1630.32 634.165 1632.27 632.842C1640.13 627.526 1644.59 622.76 1646.99 617.108C1647.58 615.703 1648.27 613.307 1648.41 612.104C1648.65 610.077 1648.22 608.298 1646.94 606.095C1646.18 604.775 1645.41 603.763 1644.33 602.64C1641.61 599.853 1639.36 598.529 1635.79 597.615C1634.09 597.178 1632.94 596.996 1629.06 596.533C1625.01 596.047 1623.52 595.792 1621.59 595.241C1619.91 594.763 1618.69 594.262 1615.19 592.645C1612.22 591.259 1610.57 590.618 1608.95 590.201C1607.25 589.773 1606.05 589.655 1604.49 589.764C1599.5 590.113 1593.75 592.238 1588.8 595.554Z" fill="white"/>
<path d="M1357.18 556.316C1352.55 556.815 1348.24 561.258 1346.41 567.407C1345.96 568.961 1345.74 570.155 1345.61 571.847C1345.41 574.516 1345.75 576.993 1346.64 579.218C1347.15 580.516 1347.76 581.519 1348.63 582.469C1349.78 583.726 1350.97 584.462 1352.51 584.861C1353.23 585.047 1354.62 585.099 1355.38 584.969C1356.88 584.709 1358.22 584.124 1359.6 583.129C1362.33 581.14 1364.5 577.855 1365.68 573.88C1366.21 572.107 1366.45 570.561 1366.5 568.601C1366.56 565.902 1366.18 563.77 1365.23 561.671C1364.7 560.478 1364.24 559.77 1363.41 558.856C1362.3 557.631 1361.12 556.896 1359.65 556.505C1359.16 556.371 1357.69 556.257 1357.18 556.316Z" fill="white"/>
<path d="M1332.18 556.671C1331.15 556.759 1330.47 556.922 1329.75 557.241C1327.26 558.349 1325.3 560.856 1324.26 564.239C1323.78 565.803 1323.56 567.109 1323.49 568.897C1323.35 571.98 1323.85 574.846 1325 577.542C1325.7 579.177 1326.52 580.501 1327.55 581.629C1329.02 583.241 1330.64 584.214 1332.43 584.543C1334.63 584.955 1337 584.099 1338.77 582.254C1340.45 580.498 1341.62 578.031 1342.21 574.951C1342.4 573.926 1342.55 570.913 1342.44 569.881C1342.03 565.715 1340.68 562.282 1338.52 559.839C1336.8 557.905 1335.01 556.9 1332.94 556.706C1332.62 556.679 1332.28 556.664 1332.18 556.671Z" fill="white"/>
<path d="M1312.95 574.353C1311.69 574.472 1310.82 574.773 1309.89 575.412C1308.1 576.64 1306.82 578.902 1306.26 581.854C1306.09 582.728 1305.97 585.007 1306.05 585.956C1306.15 587.418 1306.42 588.975 1306.79 590.307C1308.21 595.383 1311.41 599.494 1314.96 600.831C1315.77 601.138 1316.21 601.223 1317.14 601.266C1317.84 601.291 1318.09 601.28 1318.53 601.188C1319.11 601.068 1320 600.721 1320.44 600.442C1322.07 599.429 1323.26 597.727 1323.99 595.352C1324.37 594.101 1324.45 593.547 1324.54 591.589C1324.61 589.924 1324.61 589.73 1324.5 588.82C1324.3 587.126 1323.98 585.695 1323.46 584.168C1321.76 579.203 1318.39 575.46 1314.83 574.557C1314.37 574.436 1313.28 574.321 1312.95 574.353Z" fill="white"/>
<path d="M1372.25 580.818C1368.03 581.383 1363.83 585.813 1362.01 591.598C1361.13 594.395 1360.92 597.358 1361.42 599.801C1362.03 602.777 1363.63 604.93 1365.81 605.74C1366.42 605.968 1366.84 606.052 1367.53 606.083C1368.3 606.118 1368.86 606.056 1369.62 605.856C1371.14 605.455 1372.6 604.6 1374 603.295C1374.85 602.518 1375.34 601.964 1376.04 601.01C1377.77 598.657 1378.96 595.857 1379.52 592.81C1379.69 591.902 1379.82 589.534 1379.75 588.738C1379.55 586.75 1379.12 585.262 1378.35 583.945C1377.38 582.315 1375.92 581.215 1374.28 580.882C1373.77 580.782 1372.77 580.748 1372.25 580.818Z" fill="white"/>
<path d="M1341.03 595.403C1338.35 595.457 1334.98 596.055 1333.43 596.753C1332.35 597.233 1331.68 597.742 1329.69 599.578C1328.88 600.322 1327.96 601.132 1327.64 601.376C1326.74 602.068 1324.99 603.099 1321.9 604.767C1316.9 607.457 1315.29 608.524 1314.63 609.597C1313.84 610.86 1313.39 612.501 1313.3 614.424C1313.23 615.96 1313.35 617.116 1313.73 618.432C1314.08 619.705 1314.52 620.553 1315.4 621.686C1318.32 625.438 1323.26 627.872 1330.68 629.222C1333.31 629.7 1335.87 630.005 1342.47 630.63C1345.03 630.87 1350.24 631.127 1351.78 631.085C1357.94 630.926 1362.06 629.881 1365.36 627.624C1366.18 627.062 1367.39 625.99 1367.89 625.378C1368.74 624.353 1369.12 623.226 1369.2 621.573C1369.24 620.582 1369.17 619.757 1368.97 618.761C1368.46 616.282 1367.69 614.767 1366.06 613.012C1365.28 612.177 1364.71 611.676 1362.75 610.059C1360.7 608.373 1359.97 607.712 1359.11 606.732C1358.36 605.881 1357.86 605.177 1356.51 603.066C1355.37 601.263 1354.69 600.333 1353.95 599.536C1353.17 598.707 1352.55 598.221 1351.66 597.733C1348.8 596.175 1344.9 595.322 1341.03 595.403Z" fill="white"/>
<path d="M1308.75 972.301C1304.13 971.795 1298.96 975.209 1295.86 980.822C1295.08 982.241 1294.61 983.362 1294.12 984.986C1293.36 987.55 1293.16 990.042 1293.54 992.405C1293.77 993.784 1294.15 994.895 1294.79 996.009C1295.64 997.482 1296.65 998.458 1298.07 999.178C1298.73 999.514 1300.08 999.864 1300.85 999.9C1302.37 999.968 1303.8 999.684 1305.36 999.008C1308.46 997.653 1311.27 994.91 1313.29 991.282C1314.18 989.663 1314.75 988.205 1315.22 986.301C1315.86 983.679 1315.94 981.514 1315.47 979.262C1315.21 977.982 1314.91 977.192 1314.3 976.121C1313.47 974.685 1312.48 973.715 1311.13 973.017C1310.68 972.781 1309.27 972.354 1308.75 972.301Z" fill="white"/>
<path d="M1284.26 967.279C1283.24 967.145 1282.54 967.158 1281.77 967.314C1279.1 967.862 1276.64 969.889 1274.91 972.971C1274.1 974.395 1273.61 975.623 1273.15 977.353C1272.35 980.334 1272.22 983.241 1272.77 986.121C1273.1 987.869 1273.62 989.339 1274.38 990.66C1275.47 992.55 1276.84 993.848 1278.52 994.554C1280.59 995.43 1283.08 995.102 1285.21 993.681C1287.23 992.327 1288.89 990.168 1290.13 987.287C1290.54 986.327 1291.33 983.416 1291.45 982.385C1291.94 978.227 1291.36 974.585 1289.78 971.736C1288.52 969.477 1286.98 968.112 1285 967.477C1284.69 967.382 1284.36 967.294 1284.26 967.279Z" fill="white"/>
<path d="M1261.68 980.419C1260.43 980.264 1259.52 980.372 1258.47 980.796C1256.45 981.61 1254.72 983.545 1253.54 986.309C1253.19 987.125 1252.58 989.325 1252.45 990.268C1252.24 991.719 1252.16 993.296 1252.24 994.678C1252.54 999.941 1254.78 1004.64 1257.97 1006.71C1258.69 1007.19 1259.1 1007.36 1260 1007.6C1260.67 1007.78 1260.93 1007.82 1261.37 1007.83C1261.97 1007.83 1262.9 1007.68 1263.4 1007.51C1265.21 1006.87 1266.73 1005.46 1267.95 1003.3C1268.6 1002.16 1268.79 1001.63 1269.3 999.741C1269.73 998.13 1269.77 997.94 1269.86 997.03C1270.03 995.332 1270.02 993.866 1269.84 992.261C1269.24 987.046 1266.76 982.669 1263.47 981.021C1263.05 980.805 1262.01 980.458 1261.68 980.419Z" fill="white"/>
<path d="M1318.21 999.467C1313.97 999.114 1308.91 1002.54 1305.9 1007.8C1304.44 1010.34 1303.6 1013.19 1303.56 1015.68C1303.51 1018.72 1304.61 1021.17 1306.57 1022.43C1307.12 1022.78 1307.51 1022.95 1308.18 1023.13C1308.92 1023.33 1309.48 1023.39 1310.27 1023.36C1311.83 1023.29 1313.44 1022.77 1315.1 1021.8C1316.09 1021.22 1316.69 1020.78 1317.58 1020C1319.77 1018.08 1321.54 1015.6 1322.74 1012.74C1323.1 1011.89 1323.73 1009.61 1323.83 1008.81C1324.07 1006.83 1323.97 1005.28 1323.49 1003.83C1322.9 1002.03 1321.71 1000.65 1320.19 999.968C1319.71 999.76 1318.74 999.512 1318.21 999.467Z" fill="white"/>
<path d="M1284.59 1007.01C1281.96 1006.49 1278.54 1006.35 1276.87 1006.69C1275.72 1006.93 1274.95 1007.28 1272.62 1008.65C1271.67 1009.2 1270.59 1009.8 1270.23 1009.97C1269.2 1010.45 1267.27 1011.08 1263.89 1012.04C1258.43 1013.6 1256.63 1014.3 1255.75 1015.2C1254.72 1016.27 1253.92 1017.77 1253.42 1019.63C1253.02 1021.11 1252.89 1022.27 1252.98 1023.64C1253.05 1024.96 1253.3 1025.88 1253.91 1027.17C1255.96 1031.47 1260.26 1034.9 1267.22 1037.82C1269.68 1038.85 1272.11 1039.69 1278.43 1041.72C1280.88 1042.51 1285.91 1043.88 1287.42 1044.17C1293.48 1045.34 1297.73 1045.2 1301.43 1043.7C1302.35 1043.33 1303.77 1042.54 1304.38 1042.05C1305.43 1041.23 1306.05 1040.21 1306.48 1038.62C1306.74 1037.66 1306.85 1036.84 1306.86 1035.82C1306.9 1033.29 1306.47 1031.65 1305.25 1029.58C1304.67 1028.6 1304.23 1027.99 1302.65 1025.99C1301.01 1023.9 1300.45 1023.1 1299.81 1021.96C1299.26 1020.96 1298.93 1020.17 1298.07 1017.82C1297.34 1015.81 1296.87 1014.76 1296.32 1013.82C1295.73 1012.84 1295.24 1012.23 1294.47 1011.57C1292.01 1009.43 1288.39 1007.76 1284.59 1007.01Z" fill="white"/>
<path d="M557.005 969.34C553.275 972.125 551.826 978.143 553.384 984.364C553.78 985.935 554.205 987.071 554.954 988.594C556.141 990.993 557.693 992.952 559.586 994.418C560.691 995.274 561.728 995.826 562.957 996.203C564.582 996.702 565.988 996.726 567.514 996.287C568.227 996.081 569.454 995.417 570.039 994.92C571.2 993.931 572.052 992.748 572.731 991.191C574.075 988.086 574.265 984.158 573.263 980.133C572.814 978.338 572.235 976.885 571.279 975.173C569.961 972.817 568.546 971.177 566.667 969.849C565.601 969.093 564.844 968.718 563.663 968.355C562.083 967.866 560.697 967.831 559.231 968.244C558.738 968.379 557.417 969.028 557.005 969.34Z" fill="white"/>
<path d="M535.666 982.367C534.829 982.964 534.324 983.451 533.863 984.095C532.287 986.314 531.873 989.47 532.704 992.909C533.085 994.501 533.561 995.736 534.406 997.314C535.854 1000.04 537.745 1002.25 540.107 1003.99C541.541 1005.04 542.926 1005.76 544.379 1006.21C546.465 1006.85 548.356 1006.86 550.066 1006.23C552.173 1005.46 553.772 1003.53 554.36 1001.03C554.914 998.667 554.66 995.952 553.603 992.998C553.248 992.018 551.839 989.351 551.222 988.516C548.746 985.14 545.841 982.869 542.74 981.865C540.276 981.075 538.223 981.121 536.339 982.009C536.049 982.15 535.749 982.309 535.666 982.367Z" fill="white"/>
<path d="M528.109 1007.37C527.084 1008.12 526.493 1008.82 526.015 1009.84C525.097 1011.81 525.148 1014.41 526.171 1017.23C526.47 1018.07 527.525 1020.1 528.072 1020.88C528.91 1022.08 529.928 1023.28 530.928 1024.24C534.735 1027.89 539.58 1029.8 543.319 1029.14C544.17 1029 544.594 1028.84 545.417 1028.41C546.025 1028.08 546.242 1027.94 546.567 1027.64C547.011 1027.23 547.596 1026.49 547.838 1026.02C548.727 1024.32 548.877 1022.25 548.297 1019.83C547.993 1018.56 547.778 1018.04 546.859 1016.31C546.072 1014.84 545.971 1014.68 545.417 1013.95C544.384 1012.59 543.379 1011.52 542.152 1010.47C538.159 1007.07 533.361 1005.56 529.831 1006.59C529.375 1006.72 528.377 1007.18 528.109 1007.37Z" fill="white"/>
<path d="M582.445 982.764C579.104 985.396 577.739 991.349 579.122 997.252C579.789 1000.11 581.114 1002.76 582.786 1004.61C584.825 1006.87 587.296 1007.91 589.591 1007.49C590.228 1007.38 590.636 1007.24 591.241 1006.91C591.92 1006.55 592.37 1006.21 592.928 1005.65C594.028 1004.54 594.848 1003.06 595.397 1001.22C595.729 1000.12 595.868 999.394 595.986 998.215C596.28 995.308 595.88 992.292 594.813 989.384C594.497 988.515 593.401 986.413 592.931 985.766C591.755 984.151 590.627 983.089 589.287 982.353C587.628 981.44 585.813 981.234 584.232 981.782C583.741 981.956 582.861 982.437 582.445 982.764Z" fill="white"/>
<path d="M562.993 1011.21C560.716 1012.61 558.123 1014.84 557.137 1016.24C556.458 1017.19 556.137 1017.98 555.357 1020.57C555.04 1021.62 554.658 1022.79 554.509 1023.16C554.082 1024.22 553.106 1025.99 551.288 1029C548.354 1033.86 547.517 1035.6 547.491 1036.86C547.457 1038.35 547.904 1039.99 548.807 1041.69C549.523 1043.05 550.218 1043.98 551.209 1044.92C552.166 1045.84 552.973 1046.35 554.308 1046.87C558.731 1048.62 564.218 1048.2 571.296 1045.58C573.799 1044.66 576.159 1043.62 582.16 1040.8C584.485 1039.7 589.105 1037.27 590.404 1036.45C595.633 1033.18 598.647 1030.18 600.335 1026.56C600.753 1025.66 601.255 1024.12 601.372 1023.34C601.577 1022.03 601.336 1020.86 600.56 1019.4C600.095 1018.52 599.616 1017.85 598.936 1017.09C597.237 1015.22 595.803 1014.3 593.5 1013.63C592.406 1013.3 591.665 1013.16 589.148 1012.77C586.529 1012.36 585.566 1012.16 584.324 1011.76C583.242 1011.41 582.457 1011.05 580.223 1009.92C578.321 1008.95 577.263 1008.5 576.217 1008.19C575.126 1007.87 574.347 1007.77 573.33 1007.8C570.079 1007.91 566.289 1009.16 562.993 1011.21Z" fill="white"/>
<path d="M1530.94 912.328C1524.27 909.738 1515.24 912.755 1508.41 919.857C1506.68 921.653 1505.55 923.132 1504.17 925.349C1502.02 928.852 1500.73 932.471 1500.36 936.133C1500.15 938.27 1500.27 940.071 1500.78 941.979C1501.46 944.504 1502.57 946.356 1504.39 947.987C1505.24 948.748 1507.1 949.804 1508.23 950.162C1510.46 950.869 1512.7 951.014 1515.28 950.631C1520.42 949.85 1525.7 946.897 1530.12 942.309C1532.1 940.261 1533.52 938.322 1534.97 935.682C1536.97 932.044 1537.95 928.863 1538.15 925.333C1538.26 923.328 1538.14 922.036 1537.65 920.201C1536.99 917.743 1535.91 915.909 1534.18 914.335C1533.6 913.804 1531.68 912.611 1530.94 912.328Z" fill="white"/>
<path d="M1496.57 895.142C1495.11 894.537 1494.06 894.277 1492.85 894.201C1488.67 893.956 1484.22 895.99 1480.42 899.875C1478.65 901.669 1477.43 903.296 1476.06 905.683C1473.69 909.791 1472.35 914.058 1472.02 918.55C1471.82 921.277 1472.01 923.667 1472.6 925.929C1473.47 929.167 1475 931.641 1477.21 933.357C1479.93 935.478 1483.76 935.98 1487.48 934.716C1491.02 933.509 1494.35 930.964 1497.33 927.179C1498.32 925.917 1500.65 921.908 1501.24 920.424C1503.62 914.446 1504.21 908.809 1502.99 903.95C1502.01 900.095 1500.27 897.459 1497.58 895.727C1497.16 895.464 1496.71 895.203 1496.57 895.142Z" fill="white"/>
<path d="M1457.82 905.679C1456.02 904.95 1454.62 904.749 1452.9 904.962C1449.59 905.37 1446.24 907.555 1443.4 911.19C1442.55 912.262 1440.77 915.287 1440.2 916.635C1439.32 918.707 1438.58 921.018 1438.14 923.1C1436.5 931.033 1437.95 938.903 1441.86 943.24C1442.74 944.23 1443.29 944.658 1444.53 945.374C1445.45 945.898 1445.81 946.065 1446.47 946.245C1447.35 946.496 1448.8 946.647 1449.61 946.582C1452.55 946.353 1455.37 944.865 1458.04 942.14C1459.45 940.705 1459.95 940.004 1461.46 937.395C1462.73 935.173 1462.86 934.906 1463.36 933.59C1464.29 931.137 1464.86 928.958 1465.23 926.503C1466.42 918.523 1464.47 911.04 1460.24 907.286C1459.7 906.797 1458.3 905.869 1457.82 905.679Z" fill="white"/>
<path d="M1534.18 956.418C1528.03 954.21 1519.16 957.285 1512.59 963.898C1509.42 967.094 1507.03 970.987 1505.99 974.673C1504.71 979.166 1505.37 983.233 1507.78 985.885C1508.45 986.623 1508.97 987.038 1509.88 987.565C1510.9 988.155 1511.71 988.466 1512.9 988.734C1515.25 989.258 1517.85 989.122 1520.69 988.338C1522.39 987.874 1523.45 987.464 1525.08 986.657C1529.11 984.671 1532.72 981.69 1535.64 977.93C1536.51 976.811 1538.36 973.669 1538.82 972.529C1539.96 969.681 1540.43 967.345 1540.29 964.998C1540.13 962.092 1538.92 959.56 1536.92 957.946C1536.29 957.449 1534.95 956.694 1534.18 956.418Z" fill="white"/>
<path d="M1481.27 954.256C1477.57 952.436 1472.56 950.873 1469.94 950.725C1468.14 950.622 1466.85 950.841 1462.84 951.939C1461.21 952.383 1459.38 952.835 1458.77 952.945C1457.05 953.25 1453.94 953.424 1448.53 953.51C1439.81 953.649 1436.87 953.971 1435.2 954.966C1433.24 956.134 1431.46 958.056 1429.98 960.617C1428.79 962.659 1428.14 964.325 1427.73 966.384C1427.31 968.376 1427.31 969.842 1427.71 972.011C1429.05 979.195 1434.06 986.006 1443.24 993.096C1446.48 995.604 1449.76 997.831 1458.33 1003.35C1461.65 1005.49 1468.59 1009.52 1470.71 1010.55C1479.24 1014.69 1485.6 1016.18 1491.69 1015.43C1493.21 1015.24 1495.63 1014.64 1496.74 1014.15C1498.61 1013.35 1499.94 1012.09 1501.21 1009.88C1501.97 1008.56 1502.46 1007.39 1502.89 1005.89C1503.95 1002.15 1503.97 999.533 1502.97 995.98C1502.5 994.291 1502.09 993.208 1500.55 989.61C1498.94 985.863 1498.42 984.446 1497.93 982.499C1497.51 980.805 1497.33 979.494 1496.98 975.66C1496.7 972.391 1496.43 970.642 1495.97 969.028C1495.5 967.347 1495 966.247 1494.13 964.951C1491.33 960.805 1486.61 956.885 1481.27 954.256Z" fill="white"/>
<path d="M400.936 741.328C394.266 738.738 385.243 741.755 378.407 748.857C376.683 750.653 375.548 752.132 374.175 754.349C372.017 757.852 370.729 761.471 370.362 765.133C370.148 767.27 370.273 769.071 370.783 770.979C371.458 773.504 372.573 775.356 374.388 776.987C375.238 777.748 377.104 778.804 378.229 779.162C380.463 779.869 382.699 780.014 385.281 779.631C390.423 778.85 395.696 775.897 400.124 771.309C402.096 769.261 403.517 767.322 404.969 764.682C406.965 761.044 407.949 757.863 408.146 754.333C408.263 752.328 408.136 751.036 407.645 749.201C406.995 746.743 405.911 744.909 404.177 743.335C403.6 742.804 401.678 741.611 400.936 741.328Z" fill="white"/>
<path d="M366.568 724.142C365.107 723.537 364.061 723.277 362.846 723.201C358.671 722.956 354.22 724.99 350.417 728.875C348.653 730.669 347.432 732.296 346.065 734.683C343.693 738.791 342.353 743.058 342.017 747.55C341.815 750.277 342.006 752.667 342.604 754.929C343.47 758.167 344.995 760.641 347.209 762.357C349.926 764.478 353.755 764.98 357.481 763.716C361.018 762.509 364.349 759.964 367.335 756.179C368.323 754.917 370.649 750.908 371.235 749.424C373.615 743.446 374.206 737.809 372.987 732.95C372.009 729.095 370.275 726.459 367.582 724.727C367.162 724.464 366.709 724.203 366.568 724.142Z" fill="white"/>
<path d="M327.822 734.679C326.018 733.95 324.625 733.749 322.9 733.962C319.586 734.37 316.244 736.555 313.396 740.19C312.548 741.262 310.771 744.287 310.201 745.635C309.317 747.707 308.575 750.018 308.143 752.1C306.496 760.033 307.954 767.903 311.858 772.24C312.742 773.23 313.286 773.658 314.526 774.374C315.451 774.898 315.812 775.065 316.468 775.245C317.353 775.496 318.805 775.647 319.612 775.582C322.553 775.353 325.368 773.865 328.043 771.14C329.454 769.705 329.953 769.004 331.459 766.395C332.732 764.173 332.865 763.906 333.364 762.59C334.292 760.137 334.864 757.958 335.23 755.503C336.415 747.523 334.474 740.04 330.244 736.286C329.705 735.797 328.295 734.869 327.822 734.679Z" fill="white"/>
<path d="M404.179 785.418C398.027 783.21 389.158 786.285 382.594 792.898C379.417 796.094 377.034 799.987 375.988 803.673C374.715 808.166 375.373 812.233 377.784 814.885C378.45 815.623 378.97 816.038 379.883 816.565C380.904 817.155 381.713 817.466 382.9 817.734C385.25 818.258 387.846 818.122 390.691 817.338C392.394 816.874 393.452 816.464 395.084 815.657C399.112 813.671 402.715 810.69 405.635 806.93C406.51 805.811 408.355 802.669 408.816 801.529C409.961 798.681 410.425 796.345 410.293 793.998C410.129 791.092 408.918 788.56 406.916 786.946C406.289 786.449 404.946 785.694 404.179 785.418Z" fill="white"/>
<path d="M351.265 783.256C347.573 781.436 342.556 779.873 339.937 779.725C338.135 779.622 336.854 779.841 332.84 780.939C331.21 781.383 329.379 781.835 328.774 781.945C327.048 782.25 323.942 782.424 318.535 782.51C309.811 782.649 306.869 782.971 305.202 783.966C303.238 785.134 301.463 787.056 299.984 789.617C298.794 791.659 298.145 793.325 297.725 795.384C297.314 797.376 297.31 798.842 297.712 801.011C299.046 808.195 304.059 815.006 313.238 822.096C316.482 824.604 319.762 826.831 328.33 832.35C331.652 834.487 338.589 838.524 340.711 839.551C349.241 843.694 355.602 845.18 361.695 844.428C363.208 844.24 365.626 843.636 366.737 843.153C368.614 842.352 369.938 841.086 371.21 838.883C371.972 837.563 372.463 836.389 372.893 834.887C373.951 831.145 373.971 828.533 372.975 824.98C372.504 823.291 372.089 822.208 370.547 818.61C368.945 814.863 368.421 813.446 367.933 811.499C367.507 809.805 367.328 808.494 366.982 804.66C366.695 801.391 366.426 799.642 365.974 798.028C365.499 796.347 365 795.247 364.126 793.951C361.329 789.805 356.613 785.885 351.265 783.256Z" fill="white"/>
<path d="M154.323 907.574C148.745 912.055 146.846 921.378 149.579 930.849C150.272 933.24 150.986 934.962 152.219 937.26C154.174 940.88 156.664 943.806 159.652 945.955C161.395 947.208 163.017 948 164.925 948.513C167.449 949.19 169.61 949.15 171.93 948.394C173.015 948.039 174.862 946.951 175.735 946.156C177.464 944.575 178.707 942.711 179.667 940.283C181.562 935.44 181.64 929.396 179.881 923.268C179.094 920.536 178.125 918.335 176.565 915.758C174.412 912.211 172.149 909.768 169.19 907.832C167.513 906.728 166.33 906.193 164.496 905.7C162.041 905.034 159.911 905.056 157.682 905.771C156.933 906.005 154.939 907.073 154.323 907.574Z" fill="white"/>
<path d="M122.255 928.744C121.001 929.708 120.253 930.483 119.579 931.497C117.28 934.991 116.815 939.862 118.279 945.098C118.95 947.522 119.749 949.394 121.133 951.771C123.504 955.879 126.529 959.173 130.251 961.71C132.512 963.248 134.678 964.278 136.935 964.891C140.173 965.761 143.078 965.676 145.671 964.617C148.866 963.324 151.216 960.26 151.984 956.401C152.707 952.734 152.169 948.577 150.384 944.099C149.785 942.612 147.475 938.593 146.483 937.343C142.496 932.293 137.911 928.963 133.093 927.59C129.265 926.509 126.115 926.692 123.269 928.159C122.831 928.391 122.378 928.652 122.255 928.744Z" fill="white"/>
<path d="M112.008 967.568C110.474 968.766 109.604 969.872 108.926 971.471C107.622 974.546 107.843 978.532 109.567 982.816C110.072 984.087 111.803 987.139 112.685 988.306C114.037 990.108 115.668 991.905 117.255 993.321C123.302 998.713 130.847 1001.39 136.554 1000.17C137.854 999.903 138.496 999.646 139.737 998.93C140.653 998.391 140.978 998.161 141.462 997.684C142.121 997.043 142.978 995.861 143.326 995.129C144.598 992.468 144.716 989.286 143.694 985.607C143.157 983.667 142.799 982.885 141.293 980.276C140.005 978.063 139.84 977.814 138.951 976.724C137.29 974.694 135.688 973.109 133.746 971.564C127.428 966.548 119.976 964.488 114.61 966.273C113.917 966.497 112.409 967.253 112.008 967.568Z" fill="white"/>
<path d="M194.127 926.81C189.139 931.034 187.367 940.252 189.812 949.244C190.992 953.593 193.172 957.603 195.841 960.353C199.096 963.701 202.946 965.164 206.449 964.402C207.421 964.195 208.04 963.952 208.953 963.425C209.975 962.835 210.649 962.29 211.475 961.397C213.103 959.623 214.283 957.307 215.027 954.451C215.477 952.744 215.651 951.623 215.767 949.806C216.061 945.325 215.282 940.714 213.485 936.305C212.953 934.988 211.155 931.819 210.398 930.85C208.504 928.434 206.714 926.864 204.615 925.806C202.017 924.494 199.218 924.277 196.82 925.204C196.075 925.499 194.749 926.284 194.127 926.81Z" fill="white"/>
<path d="M165.798 971.554C162.376 973.842 158.514 977.405 157.077 979.599C156.086 981.108 155.635 982.326 154.578 986.352C154.148 987.985 153.624 989.798 153.417 990.376C152.818 992.023 151.416 994.801 148.787 999.526C144.545 1007.15 143.353 1009.86 143.381 1011.8C143.411 1014.09 144.187 1016.58 145.666 1019.15C146.84 1021.2 147.958 1022.59 149.532 1023.99C151.051 1025.34 152.318 1026.07 154.397 1026.81C161.286 1029.25 169.691 1028.31 180.421 1023.91C184.215 1022.35 187.784 1020.62 196.847 1015.96C200.359 1014.16 207.323 1010.17 209.274 1008.84C217.127 1003.53 221.594 998.76 223.989 993.108C224.583 991.703 225.269 989.307 225.406 988.104C225.651 986.077 225.217 984.298 223.945 982.095C223.183 980.775 222.411 979.763 221.326 978.64C218.614 975.853 216.362 974.529 212.787 973.615C211.089 973.178 209.944 972.996 206.056 972.533C202.01 972.047 200.522 971.792 198.591 971.241C196.911 970.763 195.686 970.262 192.193 968.645C189.219 967.259 187.569 966.618 185.945 966.201C184.252 965.773 183.05 965.655 181.49 965.764C176.502 966.113 170.749 968.238 165.798 971.554Z" fill="white"/>
<path d="M172.936 564.328C166.266 561.738 157.243 564.755 150.407 571.857C148.683 573.653 147.548 575.132 146.175 577.349C144.017 580.852 142.729 584.471 142.362 588.133C142.148 590.27 142.273 592.071 142.783 593.979C143.458 596.504 144.573 598.356 146.388 599.987C147.238 600.748 149.104 601.804 150.229 602.162C152.463 602.869 154.699 603.014 157.281 602.631C162.423 601.85 167.696 598.897 172.124 594.309C174.096 592.261 175.517 590.322 176.969 587.682C178.965 584.044 179.949 580.863 180.146 577.333C180.263 575.328 180.136 574.036 179.645 572.201C178.995 569.743 177.911 567.909 176.177 566.335C175.6 565.804 173.678 564.611 172.936 564.328Z" fill="white"/>
<path d="M138.568 547.142C137.107 546.537 136.061 546.277 134.846 546.201C130.671 545.956 126.22 547.99 122.417 551.875C120.653 553.669 119.432 555.296 118.065 557.683C115.693 561.791 114.353 566.058 114.017 570.55C113.815 573.277 114.006 575.667 114.604 577.929C115.47 581.167 116.995 583.641 119.209 585.357C121.926 587.478 125.755 587.98 129.481 586.716C133.018 585.509 136.349 582.964 139.335 579.179C140.323 577.917 142.649 573.908 143.235 572.424C145.615 566.446 146.206 560.809 144.987 555.95C144.009 552.095 142.275 549.459 139.582 547.727C139.162 547.464 138.709 547.203 138.568 547.142Z" fill="white"/>
<path d="M99.8224 557.679C98.0176 556.95 96.6249 556.749 94.9004 556.962C91.5856 557.37 88.2442 559.555 85.3963 563.19C84.5483 564.262 82.7708 567.287 82.2008 568.635C81.3166 570.707 80.5753 573.018 80.1425 575.1C78.4961 583.033 79.9537 590.903 83.8575 595.24C84.7423 596.23 85.2856 596.658 86.526 597.374C87.451 597.898 87.8123 598.065 88.4675 598.245C89.3526 598.496 90.8048 598.647 91.6121 598.582C94.5526 598.353 97.3675 596.865 100.043 594.14C101.454 592.705 101.953 592.004 103.459 589.395C104.732 587.173 104.865 586.906 105.364 585.59C106.292 583.137 106.864 580.958 107.23 578.503C108.415 570.523 106.474 563.04 102.244 559.286C101.705 558.797 100.295 557.869 99.8224 557.679Z" fill="white"/>
<path d="M176.179 608.418C170.027 606.21 161.158 609.285 154.594 615.898C151.417 619.094 149.034 622.987 147.988 626.673C146.715 631.166 147.373 635.233 149.784 637.885C150.45 638.623 150.97 639.038 151.883 639.565C152.904 640.155 153.713 640.466 154.9 640.734C157.25 641.258 159.846 641.122 162.691 640.338C164.394 639.874 165.452 639.464 167.084 638.657C171.112 636.671 174.715 633.69 177.635 629.93C178.51 628.811 180.355 625.669 180.816 624.529C181.961 621.681 182.425 619.345 182.293 616.998C182.129 614.092 180.918 611.56 178.916 609.946C178.289 609.449 176.946 608.694 176.179 608.418Z" fill="white"/>
<path d="M123.265 606.256C119.573 604.436 114.556 602.873 111.937 602.725C110.135 602.622 108.854 602.841 104.84 603.939C103.21 604.383 101.379 604.835 100.774 604.945C99.0484 605.25 95.9416 605.424 90.535 605.51C81.811 605.649 78.8689 605.971 77.202 606.966C75.2381 608.134 73.4627 610.056 71.9837 612.617C70.7944 614.659 70.1447 616.325 69.7254 618.384C69.3143 620.376 69.3104 621.842 69.7121 624.011C71.0457 631.195 76.0594 638.006 85.2383 645.096C88.4816 647.604 91.7621 649.831 100.33 655.35C103.652 657.487 110.589 661.524 112.711 662.551C121.241 666.694 127.602 668.18 133.695 667.428C135.208 667.24 137.626 666.636 138.737 666.153C140.614 665.352 141.938 664.086 143.21 661.883C143.972 660.563 144.463 659.389 144.893 657.887C145.951 654.145 145.971 651.533 144.975 647.98C144.504 646.291 144.089 645.208 142.547 641.61C140.945 637.863 140.421 636.446 139.933 634.499C139.507 632.805 139.328 631.494 138.982 627.66C138.695 624.391 138.426 622.642 137.974 621.028C137.499 619.347 137 618.247 136.126 616.951C133.329 612.805 128.613 608.885 123.265 606.256Z" fill="white"/>
<path d="M360.323 454.574C354.745 459.055 352.846 468.378 355.579 477.849C356.272 480.24 356.986 481.962 358.219 484.26C360.174 487.88 362.664 490.806 365.652 492.955C367.395 494.208 369.017 495 370.925 495.513C373.449 496.19 375.61 496.15 377.93 495.394C379.015 495.039 380.862 493.951 381.735 493.156C383.464 491.575 384.707 489.711 385.667 487.283C387.562 482.44 387.64 476.396 385.881 470.268C385.094 467.536 384.125 465.335 382.565 462.758C380.412 459.211 378.149 456.768 375.19 454.832C373.513 453.728 372.33 453.193 370.496 452.7C368.041 452.034 365.911 452.056 363.682 452.771C362.933 453.005 360.939 454.073 360.323 454.574Z" fill="white"/>
<path d="M328.255 475.744C327.001 476.708 326.253 477.483 325.579 478.497C323.28 481.991 322.815 486.862 324.279 492.098C324.95 494.522 325.749 496.394 327.133 498.771C329.504 502.879 332.529 506.173 336.251 508.71C338.512 510.248 340.678 511.278 342.935 511.891C346.173 512.761 349.078 512.676 351.671 511.617C354.866 510.324 357.216 507.26 357.984 503.401C358.707 499.734 358.169 495.577 356.384 491.099C355.785 489.612 353.475 485.593 352.483 484.343C348.496 479.293 343.911 475.963 339.093 474.59C335.265 473.509 332.115 473.692 329.269 475.159C328.831 475.391 328.378 475.652 328.255 475.744Z" fill="white"/>
<path d="M318.008 514.568C316.474 515.766 315.604 516.872 314.926 518.471C313.622 521.546 313.843 525.532 315.567 529.816C316.072 531.087 317.803 534.139 318.685 535.306C320.037 537.108 321.668 538.905 323.255 540.321C329.302 545.713 336.847 548.386 342.554 547.174C343.854 546.903 344.496 546.646 345.737 545.93C346.653 545.391 346.978 545.161 347.462 544.684C348.121 544.043 348.978 542.861 349.326 542.129C350.598 539.468 350.716 536.286 349.694 532.607C349.157 530.667 348.799 529.885 347.293 527.276C346.005 525.063 345.84 524.814 344.951 523.724C343.29 521.694 341.688 520.109 339.746 518.564C333.428 513.548 325.976 511.488 320.61 513.273C319.917 513.497 318.409 514.253 318.008 514.568Z" fill="white"/>
<path d="M400.127 473.81C395.139 478.034 393.367 487.252 395.812 496.244C396.992 500.593 399.172 504.603 401.841 507.353C405.096 510.701 408.946 512.164 412.449 511.402C413.421 511.195 414.04 510.952 414.953 510.425C415.975 509.835 416.649 509.29 417.475 508.397C419.103 506.623 420.283 504.307 421.027 501.451C421.477 499.744 421.651 498.623 421.767 496.806C422.061 492.325 421.282 487.714 419.485 483.305C418.953 481.988 417.155 478.819 416.398 477.85C414.504 475.434 412.714 473.864 410.615 472.806C408.017 471.494 405.218 471.277 402.82 472.204C402.075 472.499 400.749 473.284 400.127 473.81Z" fill="white"/>
<path d="M371.798 518.554C368.376 520.842 364.514 524.405 363.077 526.599C362.086 528.108 361.635 529.326 360.578 533.352C360.148 534.985 359.624 536.798 359.417 537.376C358.818 539.023 357.416 541.801 354.787 546.526C350.545 554.151 349.353 556.86 349.381 558.801C349.411 561.085 350.187 563.584 351.666 566.146C352.84 568.197 353.958 569.592 355.532 570.985C357.051 572.337 358.318 573.073 360.397 573.81C367.286 576.247 375.691 575.31 386.421 570.906C390.215 569.351 393.784 567.624 402.847 562.964C406.359 561.155 413.323 557.165 415.274 555.842C423.127 550.526 427.594 545.76 429.989 540.108C430.583 538.703 431.269 536.307 431.406 535.104C431.651 533.077 431.217 531.298 429.945 529.095C429.183 527.775 428.411 526.763 427.326 525.64C424.614 522.853 422.362 521.529 418.787 520.615C417.089 520.178 415.944 519.996 412.056 519.533C408.01 519.047 406.522 518.792 404.591 518.241C402.911 517.763 401.686 517.262 398.193 515.645C395.219 514.259 393.569 513.618 391.945 513.201C390.252 512.773 389.05 512.655 387.49 512.764C382.502 513.113 376.749 515.238 371.798 518.554Z" fill="white"/>
<path d="M211.936 270.328C205.266 267.738 196.243 270.755 189.407 277.857C187.683 279.653 186.548 281.132 185.175 283.349C183.017 286.852 181.729 290.471 181.362 294.133C181.148 296.27 181.273 298.071 181.783 299.979C182.458 302.504 183.573 304.356 185.388 305.987C186.238 306.748 188.104 307.804 189.229 308.162C191.463 308.869 193.699 309.014 196.281 308.631C201.423 307.85 206.696 304.897 211.124 300.309C213.096 298.261 214.517 296.322 215.969 293.682C217.965 290.044 218.949 286.863 219.146 283.333C219.263 281.328 219.136 280.036 218.645 278.201C217.995 275.743 216.911 273.909 215.177 272.335C214.6 271.804 212.678 270.611 211.936 270.328Z" fill="white"/>
<path d="M177.568 253.142C176.107 252.537 175.061 252.277 173.846 252.201C169.671 251.956 165.22 253.99 161.417 257.875C159.653 259.669 158.432 261.296 157.065 263.683C154.693 267.791 153.353 272.058 153.017 276.55C152.815 279.277 153.006 281.667 153.604 283.929C154.47 287.167 155.995 289.641 158.209 291.357C160.926 293.478 164.755 293.98 168.481 292.716C172.018 291.509 175.349 288.964 178.335 285.179C179.323 283.917 181.649 279.908 182.235 278.424C184.615 272.446 185.206 266.809 183.987 261.95C183.009 258.095 181.275 255.459 178.582 253.727C178.162 253.464 177.709 253.203 177.568 253.142Z" fill="white"/>
<path d="M138.822 263.679C137.018 262.95 135.625 262.749 133.9 262.962C130.586 263.37 127.244 265.555 124.396 269.19C123.548 270.262 121.771 273.287 121.201 274.635C120.317 276.707 119.575 279.018 119.143 281.1C117.496 289.033 118.954 296.903 122.858 301.24C123.742 302.23 124.286 302.658 125.526 303.374C126.451 303.898 126.812 304.065 127.468 304.245C128.353 304.496 129.805 304.647 130.612 304.582C133.553 304.353 136.368 302.865 139.043 300.14C140.454 298.705 140.953 298.004 142.459 295.395C143.732 293.173 143.865 292.906 144.364 291.59C145.292 289.137 145.864 286.958 146.23 284.503C147.415 276.523 145.474 269.04 141.244 265.286C140.705 264.797 139.295 263.869 138.822 263.679Z" fill="white"/>
<path d="M215.179 314.418C209.027 312.21 200.158 315.285 193.594 321.898C190.417 325.094 188.034 328.987 186.988 332.673C185.715 337.166 186.373 341.233 188.784 343.885C189.45 344.623 189.97 345.038 190.883 345.565C191.904 346.155 192.713 346.466 193.9 346.734C196.25 347.258 198.846 347.122 201.691 346.338C203.394 345.874 204.452 345.464 206.084 344.657C210.112 342.671 213.715 339.69 216.635 335.93C217.51 334.811 219.355 331.669 219.816 330.529C220.961 327.681 221.425 325.345 221.293 322.998C221.129 320.092 219.918 317.56 217.916 315.946C217.289 315.449 215.946 314.694 215.179 314.418Z" fill="white"/>
<path d="M162.265 312.256C158.573 310.436 153.556 308.873 150.937 308.725C149.135 308.622 147.854 308.841 143.84 309.939C142.21 310.383 140.379 310.835 139.774 310.945C138.048 311.25 134.942 311.424 129.535 311.51C120.811 311.649 117.869 311.971 116.202 312.966C114.238 314.134 112.463 316.056 110.984 318.617C109.794 320.659 109.145 322.325 108.725 324.384C108.314 326.376 108.31 327.842 108.712 330.011C110.046 337.195 115.059 344.006 124.238 351.096C127.482 353.604 130.762 355.831 139.33 361.35C142.652 363.487 149.589 367.524 151.711 368.551C160.241 372.694 166.602 374.18 172.695 373.428C174.208 373.24 176.626 372.636 177.737 372.153C179.614 371.352 180.938 370.086 182.21 367.883C182.972 366.563 183.463 365.389 183.893 363.887C184.951 360.145 184.971 357.533 183.975 353.98C183.504 352.291 183.089 351.208 181.547 347.61C179.945 343.863 179.421 342.446 178.933 340.499C178.507 338.805 178.328 337.494 177.982 333.66C177.695 330.391 177.426 328.642 176.974 327.028C176.499 325.347 176 324.247 175.126 322.951C172.329 318.805 167.613 314.885 162.265 312.256Z" fill="white"/>
<path d="M488.152 241.085C484.523 244 483.287 250.066 485.065 256.229C485.517 257.784 485.981 258.905 486.783 260.4C488.055 262.755 489.675 264.659 491.619 266.057C492.753 266.872 493.809 267.388 495.05 267.721C496.692 268.162 498.099 268.136 499.608 267.644C500.314 267.413 501.516 266.705 502.084 266.188C503.209 265.159 504.018 263.946 504.642 262.367C505.875 259.215 505.926 255.283 504.781 251.296C504.269 249.518 503.639 248.087 502.624 246.41C501.223 244.102 499.751 242.513 497.825 241.253C496.734 240.535 495.964 240.186 494.771 239.866C493.174 239.432 491.788 239.447 490.337 239.912C489.85 240.064 488.553 240.759 488.152 241.085Z" fill="white"/>
<path d="M467.287 254.859C466.472 255.486 465.985 255.991 465.547 256.65C464.05 258.923 463.748 262.093 464.7 265.5C465.137 267.077 465.657 268.295 466.557 269.841C468.1 272.514 470.069 274.657 472.49 276.308C473.961 277.309 475.37 277.979 476.839 278.378C478.946 278.944 480.836 278.889 482.523 278.2C484.602 277.358 486.131 275.364 486.63 272.854C487.101 270.468 486.751 267.764 485.589 264.85C485.2 263.882 483.697 261.267 483.052 260.454C480.457 257.168 477.474 255.002 474.339 254.108C471.848 253.405 469.799 253.524 467.947 254.478C467.662 254.629 467.368 254.799 467.287 254.859Z" fill="white"/>
<path d="M460.62 280.119C459.622 280.899 459.056 281.618 458.615 282.659C457.767 284.66 457.911 287.253 459.033 290.041C459.361 290.867 460.487 292.853 461.061 293.612C461.941 294.785 463.002 295.954 464.035 296.876C467.969 300.384 472.878 302.123 476.591 301.334C477.437 301.158 477.855 300.991 478.662 300.525C479.258 300.174 479.469 300.025 479.784 299.714C480.213 299.297 480.771 298.528 480.997 298.052C481.825 296.321 481.902 294.25 481.237 291.856C480.887 290.594 480.654 290.085 479.674 288.388C478.836 286.948 478.729 286.786 478.15 286.077C477.07 284.756 476.028 283.725 474.764 282.72C470.653 279.456 465.805 278.115 462.313 279.277C461.863 279.422 460.881 279.914 460.62 280.119Z" fill="white"/>
<path d="M514.051 253.601C510.805 256.349 509.652 262.347 511.243 268.197C512.01 271.026 513.429 273.636 515.166 275.425C517.283 277.604 519.789 278.556 522.067 278.06C522.7 277.925 523.103 277.767 523.697 277.424C524.362 277.04 524.8 276.685 525.337 276.104C526.397 274.95 527.165 273.443 527.649 271.585C527.941 270.474 528.055 269.745 528.13 268.563C528.322 265.647 527.815 262.647 526.646 259.779C526.3 258.921 525.129 256.86 524.637 256.229C523.405 254.657 522.24 253.636 520.874 252.947C519.184 252.094 517.363 251.953 515.802 252.556C515.317 252.747 514.455 253.259 514.051 253.601Z" fill="white"/>
<path d="M495.618 282.713C493.392 284.202 490.879 286.52 489.944 287.947C489.299 288.929 489.006 289.722 488.319 292.341C488.039 293.404 487.698 294.583 487.563 294.959C487.173 296.031 486.261 297.838 484.55 300.913C481.791 305.874 481.015 307.636 481.033 308.899C481.052 310.386 481.558 312.011 482.52 313.678C483.284 315.012 484.011 315.92 485.035 316.827C486.023 317.706 486.848 318.185 488.201 318.664C492.683 320.25 498.151 319.641 505.133 316.775C507.601 315.764 509.923 314.64 515.82 311.608C518.105 310.431 522.636 307.835 523.905 306.974C529.015 303.515 531.922 300.414 533.48 296.737C533.866 295.823 534.313 294.264 534.402 293.481C534.561 292.162 534.278 291.004 533.451 289.571C532.955 288.713 532.453 288.054 531.747 287.323C529.983 285.51 528.517 284.648 526.191 284.054C525.087 283.77 524.341 283.651 521.812 283.35C519.18 283.034 518.211 282.868 516.955 282.509C515.862 282.198 515.064 281.873 512.792 280.82C510.857 279.918 509.784 279.501 508.727 279.23C507.625 278.952 506.843 278.875 505.828 278.946C502.583 279.173 498.839 280.555 495.618 282.713Z" fill="white"/>
<path d="M91.1522 60.0849C87.5227 63.0002 86.2874 69.0661 88.0653 75.2285C88.5166 76.7838 88.981 77.9047 89.7832 79.3997C91.0551 81.755 92.6752 83.6586 94.6194 85.0566C95.7534 85.8721 96.809 86.3875 98.0505 86.7209C99.6925 87.1619 101.099 87.1359 102.608 86.6439C103.314 86.4126 104.516 85.705 105.084 85.1876C106.209 84.1587 107.018 82.9462 107.642 81.3663C108.875 78.2152 108.926 74.283 107.781 70.2958C107.269 68.5181 106.639 67.0865 105.624 65.4097C104.223 63.1015 102.751 61.5124 100.825 60.2525C99.734 59.5343 98.9644 59.1859 97.7709 58.8654C96.174 58.4322 94.7881 58.4465 93.3375 58.9113C92.8503 59.0639 91.5527 59.7588 91.1522 60.0849Z" fill="white"/>
<path d="M70.2874 73.859C69.4717 74.4858 68.9848 74.9905 68.5467 75.65C67.0504 77.9232 66.7483 81.0924 67.7003 84.4997C68.1372 86.0769 68.6573 87.2943 69.5572 88.8412C71.1005 91.5142 73.0687 93.6572 75.4904 95.3081C76.9614 96.3085 78.3703 96.9789 79.839 97.3776C81.9456 97.9434 83.836 97.8886 85.5226 97.1994C87.6019 96.3581 89.1307 94.3642 89.6303 91.8534C90.1006 89.4679 89.7505 86.7633 88.5893 83.8494C88.1999 82.8818 86.6969 80.2669 86.0515 79.4538C83.4574 76.168 80.4739 74.0013 77.3389 73.1079C74.8484 72.4047 72.7991 72.5241 70.9473 73.4781C70.6622 73.6291 70.3678 73.799 70.2874 73.859Z" fill="white"/>
<path d="M63.6204 99.119C62.6222 99.8986 62.0563 100.618 61.615 101.659C60.7668 103.66 60.9105 106.253 62.0326 109.04C62.361 109.867 63.487 111.853 64.0609 112.612C64.9408 113.785 66.0017 114.954 67.0345 115.875C70.9685 119.384 75.8777 121.123 79.5912 120.334C80.4368 120.157 80.8548 119.991 81.6619 119.525C82.2579 119.174 82.4695 119.025 82.7843 118.714C83.2134 118.297 83.771 117.528 83.997 117.052C84.8247 115.32 84.9017 113.25 84.2369 110.856C83.8874 109.594 83.6544 109.085 82.6745 107.388C81.8362 105.948 81.7292 105.786 81.1505 105.076C80.0699 103.756 79.0278 102.724 77.7641 101.719C73.6531 98.4557 68.8048 97.115 65.3135 98.277C64.8626 98.4221 63.8812 98.9142 63.6204 99.119Z" fill="white"/>
<path d="M117.051 72.6007C113.805 75.3486 112.652 81.3465 114.243 87.1968C115.01 90.0263 116.429 92.6357 118.166 94.4246C120.283 96.6034 122.789 97.5554 125.067 97.0596C125.7 96.9247 126.103 96.7667 126.697 96.4238C127.362 96.0399 127.8 95.6853 128.337 95.1039C129.397 93.9501 130.165 92.4431 130.649 90.5851C130.941 89.4743 131.055 88.7448 131.13 87.5628C131.322 84.6473 130.815 81.6471 129.646 78.7784C129.3 77.9212 128.129 75.8594 127.637 75.2291C126.405 73.6572 125.24 72.6359 123.874 71.9472C122.184 71.0938 120.363 70.9526 118.802 71.5554C118.317 71.7473 117.455 72.2586 117.051 72.6007Z" fill="white"/>
<path d="M98.6184 101.713C96.3919 103.201 93.8792 105.519 92.9439 106.947C92.2993 107.929 92.0058 108.722 91.3185 111.341C91.0387 112.404 90.6977 113.583 90.5628 113.959C90.1732 115.031 89.2608 116.838 87.5504 119.912C84.7905 124.873 84.0146 126.636 84.0332 127.899C84.0522 129.385 84.5576 131.011 85.52 132.678C86.2836 134.012 87.0109 134.92 88.0349 135.826C89.0231 136.706 89.8479 137.185 91.2007 137.664C95.683 139.25 101.151 138.64 108.133 135.775C110.601 134.763 112.923 133.64 118.82 130.608C121.105 129.431 125.636 126.835 126.905 125.973C132.015 122.515 134.922 119.414 136.48 115.737C136.866 114.823 137.313 113.264 137.402 112.48C137.561 111.162 137.278 110.004 136.451 108.571C135.955 107.712 135.453 107.054 134.747 106.323C132.983 104.51 131.517 103.648 129.191 103.053C128.087 102.77 127.341 102.651 124.812 102.35C122.18 102.033 121.211 101.868 119.955 101.509C118.862 101.198 118.064 100.872 115.792 99.8197C113.857 98.9179 112.784 98.5008 111.727 98.23C110.625 97.9513 109.843 97.8744 108.828 97.9453C105.583 98.1728 101.839 99.5548 98.6184 101.713Z" fill="white"/>
<path d="M387.637 94.9381C383.298 93.2525 377.427 95.2156 372.979 99.8366C371.858 101.005 371.119 101.968 370.226 103.41C368.822 105.689 367.984 108.044 367.745 110.427C367.606 111.816 367.687 112.988 368.019 114.23C368.458 115.873 369.184 117.078 370.365 118.139C370.918 118.634 372.132 119.322 372.864 119.554C374.317 120.014 375.772 120.109 377.452 119.859C380.797 119.351 384.228 117.43 387.109 114.445C388.393 113.112 389.317 111.851 390.262 110.133C391.561 107.766 392.2 105.696 392.329 103.399C392.405 102.095 392.322 101.254 392.003 100.06C391.58 98.4608 390.874 97.2676 389.746 96.2438C389.371 95.8981 388.12 95.1219 387.637 94.9381Z" fill="white"/>
<path d="M365.276 83.7556C364.326 83.3626 363.645 83.1932 362.855 83.1435C360.138 82.9844 357.242 84.3073 354.768 86.8354C353.62 88.0023 352.826 89.0615 351.936 90.6144C350.393 93.2873 349.521 96.0633 349.302 98.986C349.171 100.76 349.295 102.316 349.684 103.787C350.248 105.894 351.24 107.504 352.681 108.62C354.449 110 356.94 110.327 359.364 109.504C361.665 108.719 363.832 107.063 365.775 104.601C366.419 103.78 367.932 101.171 368.313 100.205C369.862 96.3156 370.246 92.6485 369.453 89.4868C368.816 86.9784 367.688 85.2633 365.936 84.1366C365.663 83.9652 365.368 83.7953 365.276 83.7556Z" fill="white"/>
<path d="M340.067 90.6117C338.893 90.137 337.987 90.0068 336.865 90.145C334.708 90.4107 332.534 91.8319 330.681 94.1973C330.129 94.8951 328.973 96.863 328.602 97.7398C328.026 99.088 327.544 100.591 327.263 101.947C326.191 107.108 327.14 112.229 329.68 115.05C330.255 115.694 330.609 115.973 331.416 116.439C332.018 116.78 332.253 116.888 332.679 117.006C333.255 117.169 334.2 117.267 334.725 117.225C336.638 117.076 338.47 116.107 340.211 114.335C341.129 113.401 341.453 112.945 342.433 111.247C343.261 109.801 343.348 109.628 343.673 108.772C344.276 107.176 344.648 105.758 344.887 104.161C345.658 98.9686 344.395 94.0995 341.643 91.6569C341.292 91.339 340.375 90.7351 340.067 90.6117Z" fill="white"/>
<path d="M389.748 123.625C385.745 122.188 379.974 124.188 375.703 128.491C373.637 130.571 372.086 133.104 371.405 135.502C370.577 138.425 371.005 141.071 372.574 142.797C373.007 143.277 373.345 143.547 373.939 143.89C374.604 144.274 375.13 144.476 375.903 144.651C377.432 144.992 379.121 144.903 380.972 144.393C382.08 144.091 382.768 143.824 383.83 143.299C386.451 142.007 388.795 140.068 390.695 137.621C391.264 136.893 392.465 134.849 392.765 134.107C393.51 132.254 393.812 130.734 393.725 129.207C393.619 127.316 392.831 125.669 391.529 124.619C391.12 124.295 390.246 123.804 389.748 123.625Z" fill="white"/>
<path d="M355.32 122.218C352.917 121.034 349.654 120.017 347.95 119.921C346.777 119.854 345.944 119.996 343.332 120.71C342.271 120.999 341.08 121.293 340.686 121.365C339.563 121.563 337.542 121.677 334.024 121.733C328.348 121.823 326.434 122.032 325.349 122.68C324.072 123.44 322.916 124.69 321.954 126.357C321.18 127.685 320.758 128.769 320.485 130.109C320.217 131.405 320.215 132.359 320.476 133.77C321.344 138.444 324.606 142.875 330.578 147.489C332.688 149.12 334.823 150.57 340.397 154.161C342.559 155.551 347.072 158.177 348.453 158.846C354.003 161.542 358.141 162.508 362.106 162.019C363.09 161.896 364.663 161.504 365.386 161.189C366.608 160.668 367.469 159.844 368.297 158.411C368.792 157.552 369.112 156.788 369.391 155.811C370.08 153.377 370.093 151.677 369.445 149.365C369.139 148.267 368.869 147.562 367.865 145.221C366.823 142.783 366.482 141.861 366.165 140.594C365.887 139.492 365.771 138.639 365.546 136.144C365.359 134.017 365.184 132.879 364.89 131.829C364.581 130.736 364.256 130.02 363.687 129.176C361.868 126.479 358.799 123.928 355.32 122.218Z" fill="white"/>
<path d="M1160.64 100.938C1156.3 99.2525 1150.43 101.216 1145.98 105.837C1144.86 107.005 1144.12 107.968 1143.23 109.41C1141.82 111.689 1140.98 114.044 1140.74 116.427C1140.61 117.816 1140.69 118.988 1141.02 120.23C1141.46 121.873 1142.18 123.078 1143.36 124.139C1143.92 124.634 1145.13 125.322 1145.86 125.554C1147.32 126.014 1148.77 126.109 1150.45 125.859C1153.8 125.351 1157.23 123.43 1160.11 120.445C1161.39 119.112 1162.32 117.851 1163.26 116.133C1164.56 113.766 1165.2 111.696 1165.33 109.399C1165.41 108.095 1165.32 107.254 1165 106.06C1164.58 104.461 1163.87 103.268 1162.75 102.244C1162.37 101.898 1161.12 101.122 1160.64 100.938Z" fill="white"/>
<path d="M1138.28 89.7556C1137.33 89.3626 1136.65 89.1932 1135.85 89.1435C1133.14 88.9844 1130.24 90.3073 1127.77 92.8354C1126.62 94.0023 1125.83 95.0615 1124.94 96.6144C1123.39 99.2873 1122.52 102.063 1122.3 104.986C1122.17 106.76 1122.3 108.316 1122.68 109.787C1123.25 111.894 1124.24 113.504 1125.68 114.62C1127.45 116 1129.94 116.327 1132.36 115.504C1134.67 114.719 1136.83 113.063 1138.78 110.601C1139.42 109.78 1140.93 107.171 1141.31 106.205C1142.86 102.316 1143.25 98.6485 1142.45 95.4868C1141.82 92.9784 1140.69 91.2633 1138.94 90.1366C1138.66 89.9652 1138.37 89.7953 1138.28 89.7556Z" fill="white"/>
<path d="M1113.07 96.6117C1111.89 96.137 1110.99 96.0068 1109.86 96.145C1107.71 96.4107 1105.53 97.8319 1103.68 100.197C1103.13 100.895 1101.97 102.863 1101.6 103.74C1101.03 105.088 1100.54 106.591 1100.26 107.947C1099.19 113.108 1100.14 118.229 1102.68 121.05C1103.26 121.694 1103.61 121.973 1104.42 122.439C1105.02 122.78 1105.25 122.888 1105.68 123.006C1106.25 123.169 1107.2 123.267 1107.73 123.225C1109.64 123.076 1111.47 122.107 1113.21 120.335C1114.13 119.401 1114.45 118.945 1115.43 117.247C1116.26 115.801 1116.35 115.628 1116.67 114.772C1117.28 113.176 1117.65 111.758 1117.89 110.161C1118.66 104.969 1117.39 100.1 1114.64 97.6569C1114.29 97.339 1113.37 96.7351 1113.07 96.6117Z" fill="white"/>
<path d="M1162.75 129.625C1158.75 128.188 1152.97 130.188 1148.7 134.491C1146.64 136.571 1145.09 139.104 1144.41 141.502C1143.58 144.425 1144.01 147.071 1145.57 148.797C1146.01 149.277 1146.35 149.547 1146.94 149.89C1147.6 150.274 1148.13 150.476 1148.9 150.651C1150.43 150.992 1152.12 150.903 1153.97 150.393C1155.08 150.091 1155.77 149.824 1156.83 149.299C1159.45 148.007 1161.8 146.068 1163.7 143.621C1164.26 142.893 1165.47 140.849 1165.76 140.107C1166.51 138.254 1166.81 136.734 1166.73 135.207C1166.62 133.316 1165.83 131.669 1164.53 130.619C1164.12 130.295 1163.25 129.804 1162.75 129.625Z" fill="white"/>
<path d="M1128.32 128.218C1125.92 127.034 1122.65 126.017 1120.95 125.921C1119.78 125.854 1118.94 125.996 1116.33 126.71C1115.27 126.999 1114.08 127.293 1113.69 127.365C1112.56 127.563 1110.54 127.677 1107.02 127.733C1101.35 127.823 1099.43 128.032 1098.35 128.68C1097.07 129.44 1095.92 130.69 1094.95 132.357C1094.18 133.685 1093.76 134.769 1093.48 136.109C1093.22 137.405 1093.21 138.359 1093.48 139.77C1094.34 144.444 1097.61 148.875 1103.58 153.489C1105.69 155.12 1107.82 156.57 1113.4 160.161C1115.56 161.551 1120.07 164.177 1121.45 164.846C1127 167.542 1131.14 168.508 1135.11 168.019C1136.09 167.896 1137.66 167.504 1138.39 167.189C1139.61 166.668 1140.47 165.844 1141.3 164.411C1141.79 163.552 1142.11 162.788 1142.39 161.811C1143.08 159.377 1143.09 157.677 1142.45 155.365C1142.14 154.267 1141.87 153.562 1140.87 151.221C1139.82 148.783 1139.48 147.861 1139.16 146.594C1138.89 145.492 1138.77 144.639 1138.55 142.144C1138.36 140.017 1138.18 138.879 1137.89 137.829C1137.58 136.736 1137.26 136.02 1136.69 135.176C1134.87 132.479 1131.8 129.928 1128.32 128.218Z" fill="white"/>
<path d="M1587.39 42.7558C1579.96 48.7277 1577.43 61.1534 1581.07 73.7766C1582 76.9626 1582.95 79.2586 1584.59 82.321C1587.2 87.1458 1590.51 91.0451 1594.5 93.9089C1596.82 95.5795 1598.98 96.6351 1601.53 97.3181C1604.89 98.2214 1607.77 98.1683 1610.86 97.1604C1612.31 96.6867 1614.77 95.2371 1615.93 94.1773C1618.24 92.0696 1619.89 89.5859 1621.17 86.3495C1623.7 79.8947 1623.8 71.8397 1621.46 63.6723C1620.41 60.0308 1619.12 57.0982 1617.04 53.6634C1614.17 48.9351 1611.15 45.6799 1607.21 43.0991C1604.97 41.6279 1603.4 40.9143 1600.95 40.2577C1597.68 39.3704 1594.84 39.3996 1591.87 40.3518C1590.87 40.6643 1588.22 42.0878 1587.39 42.7558Z" fill="white"/>
<path d="M1544.65 70.9709C1542.98 72.2549 1541.99 73.2887 1541.09 74.6397C1538.02 79.2961 1537.4 85.7881 1539.35 92.7677C1540.25 95.9984 1541.32 98.4923 1543.16 101.661C1546.32 107.137 1550.35 111.526 1555.31 114.908C1558.33 116.957 1561.21 118.331 1564.22 119.147C1568.54 120.306 1572.41 120.194 1575.86 118.782C1580.12 117.059 1583.25 112.975 1584.28 107.831C1585.24 102.945 1584.52 97.4045 1582.14 91.4357C1581.35 89.4535 1578.27 84.097 1576.95 82.4315C1571.63 75.7007 1565.52 71.2624 1559.1 69.4322C1554 67.9917 1549.8 68.2364 1546.01 70.1905C1545.42 70.4999 1544.82 70.8481 1544.65 70.9709Z" fill="white"/>
<path d="M1531 122.715C1528.95 124.312 1527.79 125.786 1526.89 127.918C1525.15 132.016 1525.45 137.328 1527.75 143.038C1528.42 144.732 1530.72 148.799 1531.9 150.355C1533.7 152.756 1535.88 155.152 1537.99 157.039C1546.05 164.226 1556.11 167.788 1563.71 166.173C1565.45 165.811 1566.3 165.469 1567.95 164.515C1569.18 163.796 1569.61 163.49 1570.25 162.854C1571.13 162 1572.28 160.424 1572.74 159.449C1574.43 155.902 1574.59 151.661 1573.23 146.757C1572.51 144.173 1572.04 143.13 1570.03 139.653C1568.31 136.703 1568.09 136.371 1566.91 134.918C1564.69 132.213 1562.56 130.1 1559.97 128.042C1551.55 121.356 1541.62 118.61 1534.47 120.99C1533.54 121.287 1531.53 122.295 1531 122.715Z" fill="white"/>
<path d="M1640.45 68.3937C1633.8 74.0227 1631.44 86.3091 1634.7 98.293C1636.27 104.089 1639.17 109.434 1642.73 113.099C1647.07 117.562 1652.2 119.512 1656.87 118.496C1658.16 118.22 1658.99 117.896 1660.21 117.194C1661.57 116.408 1662.47 115.681 1663.57 114.49C1665.74 112.127 1667.31 109.04 1668.3 105.234C1668.9 102.958 1669.13 101.464 1669.29 99.0428C1669.68 93.0704 1668.64 86.9249 1666.25 81.0485C1665.54 79.2925 1663.14 75.0691 1662.13 73.7779C1659.61 70.558 1657.22 68.4659 1654.42 67.0551C1650.96 65.307 1647.23 65.0178 1644.03 66.2526C1643.04 66.6455 1641.28 67.6929 1640.45 68.3937Z" fill="white"/>
<path d="M1602.69 128.027C1598.13 131.077 1592.98 135.825 1591.06 138.75C1589.74 140.761 1589.14 142.385 1587.74 147.75C1587.16 149.927 1586.46 152.343 1586.19 153.113C1585.39 155.309 1583.52 159.011 1580.02 165.309C1574.36 175.471 1572.77 179.081 1572.81 181.669C1572.85 184.713 1573.89 188.044 1575.86 191.458C1577.42 194.191 1578.91 196.051 1581.01 197.908C1583.03 199.709 1584.72 200.69 1587.49 201.672C1596.68 204.921 1607.88 203.672 1622.18 197.803C1627.23 195.73 1631.99 193.428 1644.07 187.217C1648.75 184.806 1658.03 179.489 1660.63 177.724C1671.1 170.64 1677.05 164.288 1680.25 156.755C1681.04 154.883 1681.95 151.689 1682.13 150.085C1682.46 147.384 1681.88 145.012 1680.19 142.077C1679.17 140.318 1678.14 138.968 1676.7 137.472C1673.08 133.757 1670.08 131.992 1665.32 130.774C1663.05 130.193 1661.53 129.95 1656.35 129.332C1650.95 128.684 1648.97 128.345 1646.4 127.61C1644.16 126.973 1642.52 126.306 1637.87 124.15C1633.9 122.303 1631.71 121.448 1629.54 120.894C1627.28 120.323 1625.68 120.165 1623.6 120.31C1616.95 120.776 1609.29 123.607 1602.69 128.027Z" fill="white"/>
<path d="M1670.64 772.938C1666.3 771.252 1660.43 773.216 1655.98 777.836C1654.86 779.005 1654.12 779.968 1653.23 781.41C1651.82 783.689 1650.98 786.044 1650.74 788.426C1650.61 789.816 1650.69 790.988 1651.02 792.23C1651.46 793.873 1652.18 795.077 1653.36 796.139C1653.92 796.634 1655.13 797.321 1655.86 797.554C1657.32 798.014 1658.77 798.109 1660.45 797.859C1663.8 797.351 1667.23 795.43 1670.11 792.445C1671.39 791.112 1672.32 789.851 1673.26 788.133C1674.56 785.766 1675.2 783.696 1675.33 781.399C1675.41 780.095 1675.32 779.254 1675 778.06C1674.58 776.461 1673.87 775.268 1672.75 774.244C1672.37 773.898 1671.12 773.122 1670.64 772.938Z" fill="white"/>
<path d="M1648.28 761.756C1647.33 761.363 1646.65 761.193 1645.85 761.144C1643.14 760.984 1640.24 762.307 1637.77 764.835C1636.62 766.002 1635.83 767.062 1634.94 768.614C1633.39 771.287 1632.52 774.063 1632.3 776.986C1632.17 778.76 1632.3 780.316 1632.68 781.787C1633.25 783.894 1634.24 785.504 1635.68 786.62C1637.45 788 1639.94 788.327 1642.36 787.504C1644.67 786.719 1646.83 785.063 1648.78 782.601C1649.42 781.78 1650.93 779.171 1651.31 778.205C1652.86 774.316 1653.25 770.648 1652.45 767.487C1651.82 764.978 1650.69 763.263 1648.94 762.137C1648.66 761.965 1648.37 761.795 1648.28 761.756Z" fill="white"/>
<path d="M1623.07 768.612C1621.89 768.137 1620.99 768.007 1619.86 768.145C1617.71 768.411 1615.53 769.832 1613.68 772.197C1613.13 772.895 1611.97 774.863 1611.6 775.74C1611.03 777.088 1610.54 778.592 1610.26 779.947C1609.19 785.108 1610.14 790.229 1612.68 793.05C1613.26 793.694 1613.61 793.973 1614.42 794.439C1615.02 794.78 1615.25 794.888 1615.68 795.006C1616.25 795.169 1617.2 795.267 1617.73 795.225C1619.64 795.076 1621.47 794.108 1623.21 792.335C1624.13 791.401 1624.45 790.945 1625.43 789.248C1626.26 787.801 1626.35 787.628 1626.67 786.772C1627.28 785.176 1627.65 783.758 1627.89 782.161C1628.66 776.969 1627.39 772.1 1624.64 769.657C1624.29 769.339 1623.37 768.735 1623.07 768.612Z" fill="white"/>
<path d="M1672.75 801.625C1668.75 800.188 1662.97 802.188 1658.7 806.491C1656.64 808.571 1655.09 811.104 1654.41 813.502C1653.58 816.425 1654.01 819.071 1655.57 820.797C1656.01 821.277 1656.35 821.547 1656.94 821.89C1657.6 822.274 1658.13 822.476 1658.9 822.651C1660.43 822.992 1662.12 822.903 1663.97 822.393C1665.08 822.091 1665.77 821.824 1666.83 821.299C1669.45 820.007 1671.8 818.068 1673.7 815.621C1674.26 814.893 1675.47 812.849 1675.76 812.107C1676.51 810.254 1676.81 808.734 1676.73 807.207C1676.62 805.316 1675.83 803.669 1674.53 802.619C1674.12 802.295 1673.25 801.804 1672.75 801.625Z" fill="white"/>
<path d="M1638.32 800.218C1635.92 799.034 1632.65 798.017 1630.95 797.921C1629.78 797.853 1628.94 797.996 1626.33 798.71C1625.27 798.999 1624.08 799.293 1623.69 799.365C1622.56 799.563 1620.54 799.677 1617.02 799.733C1611.35 799.823 1609.43 800.032 1608.35 800.68C1607.07 801.439 1605.92 802.69 1604.95 804.357C1604.18 805.685 1603.76 806.769 1603.48 808.109C1603.22 809.405 1603.21 810.358 1603.48 811.77C1604.34 816.444 1607.61 820.875 1613.58 825.489C1615.69 827.12 1617.82 828.569 1623.4 832.16C1625.56 833.551 1630.07 836.177 1631.45 836.845C1637 839.541 1641.14 840.508 1645.11 840.019C1646.09 839.896 1647.66 839.504 1648.39 839.189C1649.61 838.668 1650.47 837.844 1651.3 836.411C1651.79 835.552 1652.11 834.788 1652.39 833.811C1653.08 831.377 1653.09 829.677 1652.45 827.365C1652.14 826.266 1651.87 825.562 1650.87 823.221C1649.82 820.783 1649.48 819.861 1649.16 818.594C1648.89 817.492 1648.77 816.638 1648.55 814.144C1648.36 812.017 1648.18 810.879 1647.89 809.829C1647.58 808.735 1647.26 808.02 1646.69 807.176C1644.87 804.479 1641.8 801.928 1638.32 800.218Z" fill="white"/>
</svg>
